<?xml version="1.0" encoding="UTF-8" standalone="no"?>
<!-- Created with matplotlib (http://matplotlib.org/) -->

<svg
   xmlns:dc="http://purl.org/dc/elements/1.1/"
   xmlns:cc="http://creativecommons.org/ns#"
   xmlns:rdf="http://www.w3.org/1999/02/22-rdf-syntax-ns#"
   xmlns:svg="http://www.w3.org/2000/svg"
   xmlns="http://www.w3.org/2000/svg"
   xmlns:sodipodi="http://sodipodi.sourceforge.net/DTD/sodipodi-0.dtd"
   xmlns:inkscape="http://www.inkscape.org/namespaces/inkscape"
   height="507.79999"
   version="1.1"
   viewBox="0 0 376.83999 406.23999"
   width="471.04999"
   id="svg2"
   inkscape:version="0.48.2 r9819"
   sodipodi:docname="h1_cone_iso.svg"
   inkscape:export-filename="/Users/brianschmidt/Projects/wmmodels/results/fig/h1_cone_iso.png"
   inkscape:export-xdpi="400"
   inkscape:export-ydpi="400">
  <metadata
     id="metadata91">
    <rdf:RDF>
      <cc:Work
         rdf:about="">
        <dc:format>image/svg+xml</dc:format>
        <dc:type
           rdf:resource="http://purl.org/dc/dcmitype/StillImage" />
        <dc:title></dc:title>
      </cc:Work>
    </rdf:RDF>
  </metadata>
  <sodipodi:namedview
     pagecolor="#ffffff"
     bordercolor="#666666"
     borderopacity="1"
     objecttolerance="10"
     gridtolerance="10"
     guidetolerance="10"
     inkscape:pageopacity="0"
     inkscape:pageshadow="2"
     inkscape:window-width="1213"
     inkscape:window-height="688"
     id="namedview89"
     showgrid="false"
     inkscape:zoom="0.46354778"
     inkscape:cx="235.525"
     inkscape:cy="341.99619"
     inkscape:window-x="0"
     inkscape:window-y="0"
     inkscape:window-maximized="0"
     inkscape:current-layer="patch_12"
     fit-margin-top="0"
     fit-margin-left="0"
     fit-margin-right="0"
     fit-margin-bottom="0" />
  <defs
     id="defs4"
     style="stroke-linecap:butt;stroke-linejoin:round">
    <style
       type="text/css"
       id="style6">
*{stroke-linecap:butt;stroke-linejoin:round;}
  </style>
  </defs>
  <g
     id="figure_1"
     style="stroke-linecap:butt;stroke-linejoin:round"
     transform="translate(-27.58,-74.48)">
    <g
       style="stroke-linecap:butt;stroke-linejoin:round"
       id="patch_2"
       transform="translate(0,46.4)">
      <path
         style="stroke-linecap:butt;stroke-linejoin:round"
         inkscape:connector-curvature="0"
         id="path14"
         d="m 28.08,182.64 375.84,0 0,-154.56 -375.84,0 z" />
    </g>
    <g
       style="stroke-linecap:butt;stroke-linejoin:round"
       id="line2d_1"
       transform="translate(0,46.4)">
      <path
         inkscape:connector-curvature="0"
         id="path17"
         style="fill:none;stroke:#ff0000;stroke-width:2;stroke-linecap:square;stroke-linejoin:round"
         d="m 28.8317,97.1961 8.2685,-1.3545 4.51,-0.3067 6.7652,-0.1885 12.7785,-0.0823 63.8931,-0.136 1.503,-0.3252 1.503,-0.6664 1.504,-1.0974 1.503,-1.5524 1.504,-1.9586 2.255,-3.4442 3.006,-4.7098 1.504,-2.0661 1.503,-1.7305 1.503,-1.3391 1.504,-0.9335 1.503,-0.5465 1.503,-0.2004 1.504,0.0928 1.503,0.3246 2.255,0.7993 3.007,1.3843 6.013,2.8451 3.007,1.1716 3.007,0.9403 3.007,0.7178 3.758,0.6318 3.758,0.4069 5.262,0.3196 7.517,0.1885 13.53,0.0755 14.282,0.1032 1.503,0.366 0.752,0.3617 0.752,0.5193 0.751,0.7011 0.752,0.9001 0.752,1.1092 1.503,2.8439 1.504,3.5913 2.255,6.3181 3.006,8.648 1.504,3.799 1.503,3.183 1.503,2.466 0.752,0.953 0.752,0.768 0.751,0.591 0.752,0.42 0.752,0.261 0.751,0.113 0.752,-0.022 1.503,-0.391 1.504,-0.767 1.503,-1.039 2.255,-1.87 6.765,-5.895 2.255,-1.654 2.255,-1.416 2.255,-1.178 2.256,-0.954 2.255,-0.756 3.006,-0.749 3.007,-0.519 3.758,-0.417 5.262,-0.312 7.517,-0.176 15.034,-0.07 9.02,-0.099 1.503,-0.366 0.752,-0.362 0.751,-0.519 0.752,-0.701 0.752,-0.9 0.751,-1.11 1.504,-2.8441 1.503,-3.5907 2.255,-6.3184 3.007,-8.648 1.503,-3.7984 1.504,-3.1833 1.503,-2.4662 0.752,-0.9533 0.751,-0.7685 0.752,-0.5898 0.752,-0.4204 0.751,-0.2603 0.752,-0.1131 0.752,0.021 1.503,0.392 1.504,0.7666 1.503,1.038 2.255,1.8708 6.765,5.8943 2.255,1.6544 2.255,1.417 2.255,1.1772 2.255,0.9539 2.255,0.7555 3.007,0.7499 3.007,0.5187 3.758,0.4167 5.262,0.3128 7.517,0.1756 15.033,0.0693 6.014,0.0092 0,0"
         clip-path="url(#p09a663a301)" />
    </g>
    <g
       style="stroke-linecap:butt;stroke-linejoin:round"
       id="matplotlib.axis_1"
       transform="translate(0,46.4)" />
    <g
       style="stroke-linecap:butt;stroke-linejoin:round"
       id="matplotlib.axis_2"
       transform="translate(0,46.4)" />
    <g
       style="stroke-linecap:butt;stroke-linejoin:round"
       id="patch_3"
       transform="translate(0,46.4)">
      <path
         inkscape:connector-curvature="0"
         id="path22"
         style="fill:none;stroke-linecap:butt;stroke-linejoin:round"
         d="m 28.08,28.08 375.84,0" />
    </g>
    <g
       style="stroke-linecap:butt;stroke-linejoin:round"
       id="patch_4"
       transform="translate(0,46.4)">
      <path
         inkscape:connector-curvature="0"
         id="path25"
         style="fill:none;stroke-linecap:butt;stroke-linejoin:round"
         d="m 403.92,182.64 0,-154.56" />
    </g>
    <g
       style="stroke-linecap:butt;stroke-linejoin:round"
       id="patch_5"
       transform="translate(0,46.4)">
      <path
         inkscape:connector-curvature="0"
         id="path28"
         style="fill:none;stroke:#ffffff;stroke-linecap:butt;stroke-linejoin:round"
         d="m 28.08,182.64 375.84,0" />
    </g>
    <g
       style="stroke-linecap:butt;stroke-linejoin:round"
       id="patch_7">
      <path
         style="stroke-linecap:butt;stroke-linejoin:round"
         inkscape:connector-curvature="0"
         id="path35"
         d="m 28.08,365.28 375.84,0 0,-154.56 -375.84,0 z" />
    </g>
    <g
       style="stroke-linecap:butt;stroke-linejoin:round"
       id="line2d_2">
      <path
         inkscape:connector-curvature="0"
         id="path38"
         style="fill:none;stroke:#008000;stroke-width:2;stroke-linecap:square;stroke-linejoin:round"
         d="m 28.8317,280.178 6.0134,-1.332 3.7584,-0.448 4.5101,-0.277 6.7651,-0.17 13.5303,-0.076 60.886,-0.086 1.503,-0.294 0.752,-0.286 0.752,-0.407 0.751,-0.547 0.752,-0.696 1.503,-1.861 1.504,-2.447 1.503,-2.907 5.262,-10.841 1.503,-2.468 1.504,-1.955 1.503,-1.407 1.503,-0.871 1.504,-0.387 1.503,0.029 1.503,0.365 1.504,0.619 2.255,1.247 4.51,2.929 3.758,2.288 3.007,1.526 3.007,1.214 3.007,0.92 3.006,0.669 3.759,0.563 4.51,0.399 6.013,0.256 9.02,0.128 21.799,0.2 0.752,0.227 0.751,0.39 0.752,0.603 0.752,0.857 0.751,1.149 0.752,1.466 0.752,1.793 1.503,4.552 1.504,5.679 2.255,9.843 3.006,13.192 1.504,5.676 1.503,4.677 1.503,3.546 0.752,1.339 0.752,1.056 0.751,0.784 0.752,0.528 0.752,0.289 0.751,0.071 0.752,-0.127 0.752,-0.305 0.751,-0.46 1.504,-1.301 1.503,-1.683 2.255,-2.945 5.262,-7.145 2.255,-2.701 2.255,-2.35 2.255,-1.979 2.255,-1.62 2.255,-1.295 2.255,-1.013 2.255,-0.778 3.007,-0.748 3.007,-0.501 3.758,-0.391 5.262,-0.284 8.268,-0.163 20.296,-0.216 0.751,-0.227 0.752,-0.391 0.752,-0.602 0.751,-0.857 0.752,-1.15 0.752,-1.465 0.751,-1.793 1.504,-4.553 1.503,-5.679 2.255,-9.843 3.007,-13.192 1.503,-5.676 1.504,-4.677 1.503,-3.546 0.752,-1.339 0.751,-1.055 0.752,-0.785 0.752,-0.528 0.751,-0.29 0.752,-0.07 0.752,0.128 0.751,0.304 0.752,0.46 1.504,1.301 1.503,1.683 2.255,2.945 5.262,7.145 2.255,2.701 2.255,2.35 2.255,1.979 2.255,1.62 2.255,1.295 2.255,1.013 2.255,0.778 3.007,0.748 3.006,0.501 3.759,0.391 5.262,0.284 8.268,0.162 17.289,0.063 0,0"
         clip-path="url(#p857c897775)" />
    </g>
    <g
       style="stroke-linecap:butt;stroke-linejoin:round"
       id="matplotlib.axis_3" />
    <g
       style="stroke-linecap:butt;stroke-linejoin:round"
       id="matplotlib.axis_4" />
    <g
       style="stroke-linecap:butt;stroke-linejoin:round"
       id="patch_8">
      <path
         inkscape:connector-curvature="0"
         id="path43"
         style="fill:none;stroke-linecap:butt;stroke-linejoin:round"
         d="m 28.08,210.72 375.84,0" />
    </g>
    <g
       style="stroke-linecap:butt;stroke-linejoin:round"
       id="patch_9">
      <path
         inkscape:connector-curvature="0"
         id="path46"
         style="fill:none;stroke-linecap:butt;stroke-linejoin:round"
         d="m 403.92,365.28 0,-154.56" />
    </g>
    <g
       style="stroke-linecap:butt;stroke-linejoin:round"
       id="patch_10">
      <path
         inkscape:connector-curvature="0"
         id="path49"
         style="fill:none;stroke:#ffffff;stroke-linecap:butt;stroke-linejoin:round"
         d="m 28.08,365.28 375.84,0" />
    </g>
    <text
       sodipodi:linespacing="125%"
       id="text3068"
       y="458.84747"
       x="84.203392"
       style="font-size:25.60000038px;font-style:normal;font-weight:normal;line-height:125%;letter-spacing:0px;word-spacing:0px;fill:#ffffff;fill-opacity:1;stroke:none;font-family:Sans"
       xml:space="preserve"><tspan
         y="458.84747"
         x="84.203392"
         id="tspan3070"
         sodipodi:role="line">0.25 s</tspan></text>
    <g
       style="stroke-linecap:butt;stroke-linejoin:round"
       id="patch_12"
       transform="translate(0,-67.2)">
      <path
         style="stroke-linecap:butt;stroke-linejoin:round"
         inkscape:connector-curvature="0"
         id="path56"
         d="m 28.08,547.92 375.84,0 0,-154.56 -375.84,0 z" />
      <text
         sodipodi:linespacing="125%"
         id="text3080"
         y="536.63715"
         x="73.532211"
         style="font-size:25.60000038px;font-style:normal;font-weight:normal;line-height:125%;letter-spacing:0px;word-spacing:0px;fill:#ffffff;fill-opacity:1;stroke:none;font-family:Sans"
         xml:space="preserve"><tspan
           y="536.63715"
           x="73.532211"
           id="tspan3082"
           sodipodi:role="line">0.25 s</tspan></text>
    </g>
    <g
       style="stroke-linecap:butt;stroke-linejoin:round"
       id="line2d_3"
       transform="translate(0,-67.2)">
      <path
         inkscape:connector-curvature="0"
         id="path59"
         style="fill:none;stroke:#0000ff;stroke-width:2;stroke-linecap:square;stroke-linejoin:round"
         d="m 28.8317,460.733 8.2685,-1.366 4.51,-0.308 6.7652,-0.191 12.7785,-0.083 63.8931,0.002 3.758,0.153 3.759,0.419 9.02,1.253 3.758,0.197 4.51,-0.032 8.269,-0.369 9.771,-0.361 11.276,-0.161 23.302,-0.045 21.798,-0.108 18.041,-0.606 15.033,0.22 17.289,0.107 45.853,0.183 12.778,0.536 7.517,-0.034 24.805,-0.277 39.088,-0.022 0,0"
         clip-path="url(#pd1d9ae89b7)" />
    </g>
    <g
       transform="translate(0,-97.6)"
       style="stroke-linecap:butt;stroke-linejoin:round"
       id="line2d_4">
      <path
         inkscape:connector-curvature="0"
         id="path62"
         style="fill:none;stroke:#ffffff;stroke-width:2;stroke-linecap:square;stroke-linejoin:round"
         d="m 65.664,541.738 93.584,0 0,0"
         clip-path="url(#pd1d9ae89b7)" />
    </g>
    <g
       style="stroke-linecap:butt;stroke-linejoin:round"
       id="matplotlib.axis_5"
       transform="translate(0,-67.2)" />
    <g
       style="stroke-linecap:butt;stroke-linejoin:round"
       id="matplotlib.axis_6"
       transform="translate(0,-67.2)" />
    <g
       style="stroke-linecap:butt;stroke-linejoin:round"
       id="patch_13"
       transform="translate(0,-67.2)">
      <path
         inkscape:connector-curvature="0"
         id="path67"
         style="fill:none;stroke-linecap:butt;stroke-linejoin:round"
         d="m 28.08,393.36 375.84,0" />
    </g>
    <g
       style="stroke-linecap:butt;stroke-linejoin:round"
       id="patch_14"
       transform="translate(0,-67.2)">
      <path
         inkscape:connector-curvature="0"
         id="path70"
         style="fill:none;stroke-linecap:butt;stroke-linejoin:round"
         d="m 403.92,547.92 0,-154.56" />
    </g>
    <g
       style="stroke-linecap:butt;stroke-linejoin:round"
       id="patch_15"
       transform="translate(0,-67.2)" />
    <flowRoot
       transform="scale(0.8,0.8)"
       style="font-size:32px;font-style:normal;font-weight:normal;line-height:125%;letter-spacing:0px;word-spacing:0px;fill:#ffffff;fill-opacity:1;stroke:none;font-family:Sans"
       id="flowRoot3072"
       xml:space="preserve"><flowRegion
         id="flowRegion3074"><rect
           style="fill:#ffffff"
           y="564.4068"
           x="86.18644"
           height="32.796612"
           width="109.06779"
           id="rect3076" /></flowRegion><flowPara
         id="flowPara3078">0.25 s</flowPara></flowRoot>  </g>
  <defs
     id="defs78">
    <clipPath
       id="pd1d9ae89b7">
      <rect
         height="154.56"
         width="375.84"
         x="28.08"
         y="393.35999"
         id="rect81"
         style="stroke-linecap:butt;stroke-linejoin:round" />
    </clipPath>
    <clipPath
       id="p857c897775">
      <rect
         height="154.56"
         width="375.84"
         x="28.08"
         y="210.72"
         id="rect84"
         style="stroke-linecap:butt;stroke-linejoin:round" />
    </clipPath>
    <clipPath
       id="p09a663a301">
      <rect
         height="154.56"
         width="375.84"
         x="28.08"
         y="28.08"
         id="rect87"
         style="stroke-linecap:butt;stroke-linejoin:round" />
    </clipPath>
  </defs>
</svg>
