<?xml version="1.0" encoding="UTF-8" standalone="no"?>
<!-- Created with matplotlib (http://matplotlib.org/) -->

<svg
   xmlns:dc="http://purl.org/dc/elements/1.1/"
   xmlns:cc="http://creativecommons.org/ns#"
   xmlns:rdf="http://www.w3.org/1999/02/22-rdf-syntax-ns#"
   xmlns:svg="http://www.w3.org/2000/svg"
   xmlns="http://www.w3.org/2000/svg"
   xmlns:sodipodi="http://sodipodi.sourceforge.net/DTD/sodipodi-0.dtd"
   xmlns:inkscape="http://www.inkscape.org/namespaces/inkscape"
   height="511.04999"
   version="1.1"
   viewBox="0 0 376.83999 408.83999"
   width="471.04999"
   id="svg2"
   inkscape:version="0.48.2 r9819"
   sodipodi:docname="h2_cone_iso.svg"
   inkscape:export-filename="/Users/brianschmidt/Projects/wmmodels/results/fig/h2_cone_iso.png"
   inkscape:export-xdpi="400"
   inkscape:export-ydpi="400">
  <metadata
     id="metadata91">
    <rdf:RDF>
      <cc:Work
         rdf:about="">
        <dc:format>image/svg+xml</dc:format>
        <dc:type
           rdf:resource="http://purl.org/dc/dcmitype/StillImage" />
        <dc:title />
      </cc:Work>
    </rdf:RDF>
  </metadata>
  <sodipodi:namedview
     pagecolor="#ffffff"
     bordercolor="#666666"
     borderopacity="1"
     objecttolerance="10"
     gridtolerance="10"
     guidetolerance="10"
     inkscape:pageopacity="0"
     inkscape:pageshadow="2"
     inkscape:window-width="1202"
     inkscape:window-height="673"
     id="namedview89"
     showgrid="false"
     fit-margin-top="0"
     fit-margin-left="0"
     fit-margin-right="0"
     fit-margin-bottom="0"
     inkscape:zoom="0.92709556"
     inkscape:cx="235.525"
     inkscape:cy="302.67051"
     inkscape:window-x="0"
     inkscape:window-y="0"
     inkscape:window-maximized="0"
     inkscape:current-layer="axes_1" />
  <defs
     id="defs4"
     style="stroke-linecap:butt;stroke-linejoin:round">
    <style
       type="text/css"
       id="style6">
*{stroke-linecap:butt;stroke-linejoin:round;}
  </style>
  </defs>
  <g
     id="figure_1"
     style="stroke-linecap:butt;stroke-linejoin:round"
     transform="translate(-27.58,-86.78)">
    <g
       id="patch_1"
       style="stroke-linecap:butt;stroke-linejoin:round" />
    <g
       id="axes_1"
       transform="translate(0,59.2)"
       style="stroke-linecap:butt;stroke-linejoin:round">
      <g
         id="patch_2"
         style="stroke-linecap:butt;stroke-linejoin:round">
        <path
           d="m 28.08,182.64 375.84,0 0,-154.56 -375.84,0 z"
           id="path14"
           inkscape:connector-curvature="0"
           style="stroke-linecap:butt;stroke-linejoin:round" />
      </g>
      <g
         id="line2d_1"
         style="stroke-linecap:butt;stroke-linejoin:round">
        <path
           clip-path="url(#p09a663a301)"
           d="m 28.8317,100.511 0.7517,1.29 0.7516,1.024 1.5034,1.46 1.5034,0.943 1.5033,0.619 1.5034,0.407 2.255,0.367 3.0067,0.239 5.2618,0.143 14.2819,0.043 62.3891,-0.02 1.504,-0.143 1.503,-0.409 1.503,-0.809 1.504,-1.283 1.503,-1.745 1.504,-2.114 5.261,-7.8412 1.504,-1.6854 1.503,-1.2531 1.503,-0.8038 1.504,-0.3789 1.503,-0.0099 1.503,0.2875 1.504,0.5112 2.255,1.0331 8.268,4.1181 3.007,1.1128 3.007,0.8427 3.006,0.6034 3.759,0.4915 4.51,0.324 6.013,0.1836 11.276,0.0754 24.805,0.1298 0.752,0.1707 0.751,0.2912 0.752,0.4451 0.752,0.6275 0.751,0.8317 0.752,1.048 1.503,2.748 1.504,3.52 2.255,6.187 2.255,6.29 1.503,3.717 1.504,3.063 1.503,2.28 0.752,0.833 0.751,0.633 0.752,0.439 0.752,0.257 0.751,0.089 0.752,-0.063 0.752,-0.198 1.503,-0.736 1.503,-1.076 2.256,-1.992 6.013,-5.574 2.255,-1.747 2.255,-1.468 2.255,-1.192 2.255,-0.936 2.255,-0.716 3.007,-0.676 3.007,-0.437 3.758,-0.32 5.262,-0.207 9.02,-0.094 26.309,-0.138 0.751,-0.171 0.752,-0.291 0.752,-0.445 0.751,-0.628 0.752,-0.831 0.752,-1.049 1.503,-2.748 1.504,-3.52 2.255,-6.1869 2.255,-6.2887 1.503,-3.7181 1.503,-3.0628 1.504,-2.28 0.751,-0.8334 0.752,-0.6319 0.752,-0.4389 0.751,-0.2572 0.752,-0.0896 0.752,0.063 0.751,0.1985 1.504,0.7357 1.503,1.0757 2.255,1.9926 6.014,5.5741 2.255,1.7471 2.255,1.4683 2.255,1.1908 2.255,0.9366 2.255,0.7159 3.007,0.6764 3.006,0.4371 3.759,0.3202 5.261,0.2065 9.021,0.0946 23.302,0.0204 0,0"
           style="fill:none;stroke:#ff0000;stroke-width:2;stroke-linecap:square;stroke-linejoin:round"
           id="path17"
           inkscape:connector-curvature="0" />
      </g>
      <g
         id="matplotlib.axis_1"
         style="stroke-linecap:butt;stroke-linejoin:round" />
      <g
         id="matplotlib.axis_2"
         style="stroke-linecap:butt;stroke-linejoin:round" />
      <g
         id="patch_3"
         style="stroke-linecap:butt;stroke-linejoin:round">
        <path
           d="m 28.08,28.08 375.84,0"
           style="fill:none;stroke-linecap:butt;stroke-linejoin:round"
           id="path22"
           inkscape:connector-curvature="0" />
      </g>
      <g
         id="patch_4"
         style="stroke-linecap:butt;stroke-linejoin:round">
        <path
           d="m 403.92,182.64 0,-154.56"
           style="fill:none;stroke-linecap:butt;stroke-linejoin:round"
           id="path25"
           inkscape:connector-curvature="0" />
      </g>
      <g
         id="patch_5"
         style="stroke-linecap:butt;stroke-linejoin:round">
        <path
           d="m 28.08,182.64 375.84,0"
           style="fill:none;stroke:#ffffff;stroke-linecap:butt;stroke-linejoin:round"
           id="path28"
           inkscape:connector-curvature="0" />
      </g>
    </g>
    <g
       id="axes_2"
       style="stroke-linecap:butt;stroke-linejoin:round">
      <g
         id="patch_7"
         style="stroke-linecap:butt;stroke-linejoin:round">
        <path
           d="m 28.08,365.28 375.84,0 0,-154.56 -375.84,0 z"
           id="path35"
           inkscape:connector-curvature="0"
           style="stroke-linecap:butt;stroke-linejoin:round" />
      </g>
      <g
         id="line2d_2"
         style="stroke-linecap:butt;stroke-linejoin:round">
        <path
           clip-path="url(#p857c897775)"
           d="m 28.8317,283.992 0.7517,1.462 0.7516,1.164 0.7517,0.928 1.5034,1.341 1.5033,0.877 1.5034,0.577 2.255,0.52 2.2551,0.279 3.7584,0.209 6.7651,0.098 30.8189,0.018 42.0937,-0.039 1.504,-0.245 0.751,-0.273 0.752,-0.414 0.752,-0.576 0.751,-0.756 0.752,-0.946 1.503,-2.448 1.504,-3.092 2.255,-5.347 2.255,-5.33 1.503,-3.093 1.504,-2.505 1.503,-1.821 0.752,-0.647 0.751,-0.477 0.752,-0.313 0.752,-0.162 0.751,-0.023 1.504,0.315 1.503,0.697 1.503,0.967 2.256,1.737 5.261,4.185 2.255,1.532 2.255,1.296 2.255,1.057 2.255,0.835 2.255,0.641 3.007,0.609 3.007,0.395 4.51,0.33 6.013,0.177 12.027,0.068 21.047,0.085 0.752,0.173 0.752,0.343 0.751,0.577 0.752,0.87 0.752,1.213 0.751,1.593 0.752,1.991 0.752,2.39 1.503,5.879 1.504,7.03 4.51,22.264 1.503,5.937 1.503,4.574 0.752,1.735 0.752,1.364 0.751,1.005 0.752,0.662 0.752,0.342 0.751,0.05 0.752,-0.214 0.752,-0.447 0.751,-0.649 1.504,-1.78 1.503,-2.236 3.007,-5.095 3.007,-5.048 2.255,-3.379 2.255,-2.901 2.255,-2.393 1.503,-1.325 1.503,-1.125 2.255,-1.352 2.256,-1.011 2.255,-0.736 2.255,-0.525 3.006,-0.459 3.759,-0.32 5.261,-0.195 9.772,-0.084 21.799,-0.089 0.752,-0.174 0.751,-0.342 0.752,-0.577 0.752,-0.87 0.751,-1.213 0.752,-1.594 0.752,-1.99 0.751,-2.389 1.504,-5.88 1.503,-7.03 4.51,-22.263 1.504,-5.938 1.503,-4.574 0.752,-1.734 0.751,-1.365 0.752,-1.005 0.752,-0.662 0.751,-0.342 0.752,-0.05 0.752,0.215 0.751,0.446 0.752,0.649 1.503,1.78 1.504,2.237 3.007,5.094 3.006,5.048 2.255,3.379 2.255,2.9 1.504,1.652 1.503,1.431 1.503,1.223 2.255,1.481 2.256,1.117 2.255,0.82 2.255,0.589 3.006,0.52 3.759,0.366 5.261,0.225 9.021,0.097 21.047,0.028 0,0"
           style="fill:none;stroke:#008000;stroke-width:2;stroke-linecap:square;stroke-linejoin:round"
           id="path38"
           inkscape:connector-curvature="0" />
      </g>
      <g
         id="matplotlib.axis_3"
         style="stroke-linecap:butt;stroke-linejoin:round" />
      <g
         id="matplotlib.axis_4"
         style="stroke-linecap:butt;stroke-linejoin:round" />
      <g
         id="patch_8"
         style="stroke-linecap:butt;stroke-linejoin:round">
        <path
           d="m 28.08,210.72 375.84,0"
           style="fill:none;stroke-linecap:butt;stroke-linejoin:round"
           id="path43"
           inkscape:connector-curvature="0" />
      </g>
      <g
         id="patch_9"
         style="stroke-linecap:butt;stroke-linejoin:round">
        <path
           d="m 403.92,365.28 0,-154.56"
           style="fill:none;stroke-linecap:butt;stroke-linejoin:round"
           id="path46"
           inkscape:connector-curvature="0" />
      </g>
      <g
         id="patch_10"
         style="stroke-linecap:butt;stroke-linejoin:round">
        <path
           d="m 28.08,365.28 375.84,0"
           style="fill:none;stroke:#ffffff;stroke-linecap:butt;stroke-linejoin:round"
           id="path49"
           inkscape:connector-curvature="0" />
      </g>
      <g
         id="patch_11"
         style="stroke-linecap:butt;stroke-linejoin:round" />
    </g>
    <g
       id="axes_3"
       transform="translate(0,-52.8)"
       style="stroke-linecap:butt;stroke-linejoin:round">
      <g
         id="patch_12"
         style="stroke-linecap:butt;stroke-linejoin:round">
        <path
           d="m 28.08,547.92 375.84,0 0,-154.56 -375.84,0 z"
           id="path56"
           inkscape:connector-curvature="0"
           style="stroke-linecap:butt;stroke-linejoin:round" />
      </g>
      <g
         id="line2d_3"
         style="stroke-linecap:butt;stroke-linejoin:round">
        <path
           clip-path="url(#pd1d9ae89b7)"
           d="m 28.8317,464.073 0.7517,1.301 0.7516,1.031 1.5034,1.472 1.5034,0.951 1.5033,0.623 1.5034,0.411 2.255,0.369 3.0067,0.242 5.2618,0.144 12.7786,0.043 63.8924,-0.082 0.752,-0.166 0.752,-0.312 0.751,-0.505 0.752,-0.74 0.752,-1.009 0.751,-1.296 0.752,-1.591 1.503,-4.027 1.504,-4.955 5.262,-18.771 1.503,-4.093 1.503,-3.06 0.752,-1.123 0.752,-0.856 0.751,-0.599 0.752,-0.357 0.752,-0.133 0.751,0.069 0.752,0.25 0.752,0.407 1.503,1.198 1.503,1.566 2.256,2.723 4.51,5.525 2.255,2.401 2.255,2.045 2.255,1.676 2.255,1.331 2.255,1.027 2.255,0.769 2.255,0.563 3.007,0.508 3.758,0.367 5.262,0.233 9.02,0.105 24.805,0.186 0.752,0.341 0.752,0.643 0.751,1.043 0.752,1.53 0.752,2.084 0.751,2.682 0.752,3.296 1.503,8.348 1.504,10.284 5.262,39.036 1.503,8.531 0.752,3.475 0.751,2.914 0.752,2.348 0.752,1.793 0.751,1.258 0.752,0.754 0.752,0.289 0.751,-0.134 0.752,-0.51 0.752,-0.839 0.751,-1.121 1.504,-2.905 1.503,-3.514 7.517,-18.743 2.255,-4.513 1.503,-2.581 1.504,-2.245 1.503,-1.925 1.503,-1.628 1.504,-1.359 1.503,-1.123 1.504,-0.917 2.255,-1.053 2.255,-0.746 2.255,-0.517 3.006,-0.44 3.759,-0.295 5.262,-0.173 10.523,-0.072 18.04,-0.037 0.752,-0.139 0.752,-0.341 0.751,-0.643 0.752,-1.043 0.752,-1.53 0.751,-2.084 0.752,-2.683 0.752,-3.295 1.503,-8.348 1.504,-10.284 5.261,-39.036 1.504,-8.532 0.751,-3.474 0.752,-2.914 0.752,-2.348 0.751,-1.793 0.752,-1.258 0.752,-0.754 0.751,-0.289 0.752,0.134 0.752,0.511 0.751,0.839 0.752,1.12 1.503,2.905 1.504,3.514 7.517,18.743 2.255,4.512 1.503,2.583 1.503,2.244 1.504,1.924 1.503,1.628 1.503,1.36 1.504,1.123 1.503,0.917 2.255,1.053 2.255,0.746 2.255,0.517 3.007,0.439 3.758,0.297 5.262,0.172 10.524,0.071 16.537,0.037 0,0"
           style="fill:none;stroke:#0000ff;stroke-width:2;stroke-linecap:square;stroke-linejoin:round"
           id="path59"
           inkscape:connector-curvature="0" />
      </g>
      <g
         id="line2d_4"
         style="stroke-linecap:butt;stroke-linejoin:round"
         transform="translate(0,-28.8)">
        <path
           clip-path="url(#pd1d9ae89b7)"
           d="m 65.664,541.738 93.584,0 0,0"
           style="fill:none;stroke:#ffffff;stroke-width:2;stroke-linecap:square;stroke-linejoin:round"
           id="path62"
           inkscape:connector-curvature="0" />
      </g>
      <g
         id="matplotlib.axis_5"
         style="stroke-linecap:butt;stroke-linejoin:round" />
      <g
         id="matplotlib.axis_6"
         style="stroke-linecap:butt;stroke-linejoin:round" />
      <g
         id="patch_13"
         style="stroke-linecap:butt;stroke-linejoin:round">
        <path
           d="m 28.08,393.36 375.84,0"
           style="fill:none;stroke-linecap:butt;stroke-linejoin:round"
           id="path67"
           inkscape:connector-curvature="0" />
      </g>
      <g
         id="patch_14"
         style="stroke-linecap:butt;stroke-linejoin:round">
        <path
           d="m 403.92,547.92 0,-154.56"
           style="fill:none;stroke-linecap:butt;stroke-linejoin:round"
           id="path70"
           inkscape:connector-curvature="0" />
      </g>
      <g
         id="patch_15"
         style="stroke-linecap:butt;stroke-linejoin:round" />
      <text
         xml:space="preserve"
         style="font-size:25.60000038px;font-style:normal;font-weight:normal;line-height:125%;letter-spacing:0px;word-spacing:0px;fill:#ffffff;fill-opacity:1;stroke:none;font-family:Sans"
         x="72.61026"
         y="537.43945"
         id="text3068"
         sodipodi:linespacing="125%"><tspan
           sodipodi:role="line"
           id="tspan3070"
           x="72.61026"
           y="537.43945">0.25 s</tspan></text>
    </g>
  </g>
  <defs
     id="defs78">
    <clipPath
       id="pd1d9ae89b7">
      <rect
         height="154.56"
         width="375.84"
         x="28.08"
         y="393.35999"
         id="rect81"
         style="stroke-linecap:butt;stroke-linejoin:round" />
    </clipPath>
    <clipPath
       id="p857c897775">
      <rect
         height="154.56"
         width="375.84"
         x="28.08"
         y="210.72"
         id="rect84"
         style="stroke-linecap:butt;stroke-linejoin:round" />
    </clipPath>
    <clipPath
       id="p09a663a301">
      <rect
         height="154.56"
         width="375.84"
         x="28.08"
         y="28.08"
         id="rect87"
         style="stroke-linecap:butt;stroke-linejoin:round" />
    </clipPath>
  </defs>
</svg>
