<?xml version="1.0" encoding="UTF-8" standalone="no"?>
<!-- Created with matplotlib (http://matplotlib.org/) -->

<svg
   xmlns:dc="http://purl.org/dc/elements/1.1/"
   xmlns:cc="http://creativecommons.org/ns#"
   xmlns:rdf="http://www.w3.org/1999/02/22-rdf-syntax-ns#"
   xmlns:svg="http://www.w3.org/2000/svg"
   xmlns="http://www.w3.org/2000/svg"
   xmlns:sodipodi="http://sodipodi.sourceforge.net/DTD/sodipodi-0.dtd"
   xmlns:inkscape="http://www.inkscape.org/namespaces/inkscape"
   height="780"
   version="1.1"
   viewBox="0 0 388.52542 624"
   width="485.65677"
   id="svg2"
   inkscape:version="0.48.2 r9819"
   sodipodi:docname="system.svg"
   inkscape:export-filename="/Users/brianschmidt/Projects/wmmodels/results/fig/system.png"
   inkscape:export-xdpi="400"
   inkscape:export-ydpi="400">
  <metadata
     id="metadata124">
    <rdf:RDF>
      <cc:Work
         rdf:about="">
        <dc:format>image/svg+xml</dc:format>
        <dc:type
           rdf:resource="http://purl.org/dc/dcmitype/StillImage" />
        <dc:title></dc:title>
      </cc:Work>
    </rdf:RDF>
  </metadata>
  <sodipodi:namedview
     pagecolor="#ffffff"
     bordercolor="#666666"
     borderopacity="1"
     objecttolerance="10"
     gridtolerance="10"
     guidetolerance="10"
     inkscape:pageopacity="0"
     inkscape:pageshadow="2"
     inkscape:window-width="1223"
     inkscape:window-height="681"
     id="namedview122"
     showgrid="true"
     inkscape:zoom="0.58271605"
     inkscape:cx="321.16049"
     inkscape:cy="292.56099"
     inkscape:window-x="0"
     inkscape:window-y="0"
     inkscape:window-maximized="0"
     inkscape:current-layer="svg2"
     fit-margin-top="0"
     fit-margin-left="0"
     fit-margin-right="0"
     fit-margin-bottom="0"
     showguides="false">
    <inkscape:grid
       type="xygrid"
       id="grid3433"
       empspacing="5"
       visible="true"
       enabled="true"
       snapvisiblegridlinesonly="true" />
  </sodipodi:namedview>
  <defs
     id="defs4"
     style="stroke-linecap:butt;stroke-linejoin:round">
    <style
       type="text/css"
       id="style6">
*{stroke-linecap:butt;stroke-linejoin:round;}
  </style>
  </defs>
  <rect
     y="-5.4007705e-06"
     x="0"
     height="624"
     width="388.52542"
     id="rect3333"
     style="fill:#000000;fill-opacity:1;stroke:none" />
  <g
     transform="translate(-1.3728813,104.68134)"
     id="line2d_1"
     style="stroke-linecap:butt;stroke-linejoin:round">
    <path
       clip-path="url(#p4d2f4501d6)"
       d="m 28.7597,100.891 101.9523,-0.077 0.679,-0.303 0.68,-0.6645 0.68,-1.1379 0.679,-1.6936 0.68,-2.2979 0.68,-2.9146 1.359,-7.5518 1.359,-9.3336 3.399,-24.9192 1.359,-8.1291 1.36,-6.1284 0.679,-2.2407 0.68,-1.6911 0.68,-1.1609 0.679,-0.6623 0.68,-0.2058 0.68,0.2031 0.679,0.5606 0.68,0.8654 1.359,2.4407 1.36,3.0757 6.117,14.9474 2.039,4.039 1.359,2.302 1.36,1.9938 1.359,1.7015 1.359,1.4317 1.36,1.1891 1.359,0.9747 2.039,1.1221 2.039,0.7953 2.039,0.548 2.719,0.4599 3.398,0.3015 4.758,0.1658 10.195,0.0607 20.391,0.0784 0.679,0.3036 0.68,0.6644 0.68,1.1377 0.679,1.6936 0.68,2.298 0.68,2.9147 1.359,7.5518 1.359,9.3336 3.399,24.9186 1.359,8.13 1.36,6.128 0.679,2.241 0.68,1.691 0.68,1.161 0.679,0.662 0.68,0.206 0.68,-0.203 0.679,-0.561 0.68,-0.865 1.359,-2.441 1.36,-3.076 6.117,-14.947 2.039,-4.039 1.359,-2.302 1.36,-1.994 1.359,-1.701 1.359,-1.432 1.36,-1.189 1.359,-0.975 2.039,-1.122 2.039,-0.795 2.039,-0.548 2.719,-0.46 3.398,-0.302 4.758,-0.166 10.195,-0.06 88.359,-0.002 0,0"
       style="fill:none;stroke:#ffffff;stroke-width:2;stroke-linecap:square;stroke-linejoin:round"
       id="path17"
       inkscape:connector-curvature="0" />
  </g>
  <g
     id="matplotlib.axis_1"
     style="stroke-linecap:butt;stroke-linejoin:round"
     transform="translate(-1.3728813,-28.118658)" />
  <g
     id="matplotlib.axis_2"
     style="stroke-linecap:butt;stroke-linejoin:round"
     transform="translate(-1.3728813,-28.118658)" />
  <g
     transform="translate(-1.3728813,59.881342)"
     id="line2d_2"
     style="stroke-linecap:butt;stroke-linejoin:round">
    <path
       clip-path="url(#p39859b47b5)"
       d="m 28.7597,256.43 2.039,-0.117 5.4375,-0.484 5.4374,-0.206 10.1952,-0.105 38.7418,-0.019 40.7804,-0.054 0.68,-0.117 0.68,-0.233 0.679,-0.396 0.68,-0.601 0.68,-0.842 0.679,-1.109 0.68,-1.391 1.359,-3.618 1.36,-4.59 2.039,-7.98 2.039,-8.019 1.359,-4.697 1.36,-3.844 1.359,-2.844 0.68,-1.035 0.679,-0.782 0.68,-0.541 0.68,-0.315 0.679,-0.106 0.68,0.081 0.68,0.248 1.359,0.912 1.359,1.33 2.04,2.461 5.437,6.918 2.039,2.191 2.039,1.855 2.039,1.519 2.039,1.206 2.039,0.933 2.039,0.705 2.719,0.66 2.719,0.425 3.398,0.313 4.758,0.208 8.836,0.108 20.39,0.19 0.68,0.233 0.679,0.396 0.68,0.601 0.68,0.842 0.679,1.11 0.68,1.391 1.359,3.617 1.36,4.59 2.039,7.98 2.039,8.019 1.359,4.697 1.36,3.844 1.359,2.845 0.68,1.034 0.679,0.782 0.68,0.541 0.68,0.315 0.679,0.107 0.68,-0.082 0.68,-0.248 1.359,-0.912 1.359,-1.33 2.04,-2.461 5.437,-6.918 2.039,-2.19 2.039,-1.856 2.039,-1.519 2.039,-1.206 2.039,-0.933 2.039,-0.705 2.719,-0.659 2.719,-0.425 3.398,-0.314 4.758,-0.207 8.836,-0.109 29.906,-0.019 57.093,0 0,0"
       style="fill:none;stroke:#ffffff;stroke-width:2;stroke-linecap:square;stroke-linejoin:round"
       id="path38"
       inkscape:connector-curvature="0" />
  </g>
  <g
     transform="translate(-1.3728813,51.881342)"
     id="line2d_3"
     style="stroke-linecap:butt;stroke-linejoin:round">
    <path
       clip-path="url(#p39859b47b5)"
       d="m 28.7597,273.199 0.6797,0.819 1.3593,1.114 1.3594,0.695 1.3593,0.448 2.0391,0.4 2.7187,0.26 4.7578,0.154 12.2342,0.046 76.1238,-0.082 0.68,-0.178 0.68,-0.35 0.679,-0.585 0.68,-0.874 0.68,-1.208 0.679,-1.57 0.68,-1.941 1.359,-4.94 1.36,-6.091 4.078,-19.867 1.359,-5.334 1.36,-4.073 0.679,-1.522 0.68,-1.178 0.68,-0.845 0.679,-0.528 0.68,-0.234 0.68,0.033 0.679,0.271 0.68,0.478 1.359,1.458 1.36,1.937 2.039,3.377 3.398,5.736 2.039,3.055 2.039,2.617 2.039,2.151 2.039,1.71 2.039,1.318 2.039,0.987 2.04,0.72 2.039,0.512 2.718,0.446 3.399,0.308 4.757,0.183 9.516,0.077 20.39,0.088 0.68,0.178 0.68,0.35 0.679,0.585 0.68,0.874 0.68,1.208 0.679,1.57 0.68,1.941 1.359,4.94 1.36,6.091 4.078,19.867 1.359,5.334 1.36,4.073 0.679,1.522 0.68,1.178 0.68,0.845 0.679,0.528 0.68,0.234 0.68,-0.033 0.679,-0.271 0.68,-0.478 1.359,-1.458 1.36,-1.937 2.039,-3.377 3.398,-5.736 2.039,-3.055 2.039,-2.617 2.039,-2.151 2.039,-1.71 2.039,-1.318 2.039,-0.987 2.04,-0.72 2.039,-0.512 2.718,-0.446 3.399,-0.308 4.757,-0.183 9.516,-0.077 63.21,-0.005 24.469,0 0,0"
       style="fill:none;stroke:#ffffff;stroke-width:2;stroke-linecap:butt;stroke-linejoin:round;stroke-dasharray:6, 6;stroke-dashoffset:0"
       id="path41"
       inkscape:connector-curvature="0" />
  </g>
  <g
     id="matplotlib.axis_3"
     style="stroke-linecap:butt;stroke-linejoin:round"
     transform="translate(-1.3728813,-28.118658)" />
  <g
     id="matplotlib.axis_4"
     style="stroke-linecap:butt;stroke-linejoin:round"
     transform="translate(-1.3728813,-28.118658)" />
  <g
     id="patch_8"
     style="stroke-linecap:butt;stroke-linejoin:round"
     transform="translate(-1.3728813,23.081342)">
    <path
       d="m 28.08,183.06 339.84,0"
       style="fill:none;stroke-linecap:butt;stroke-linejoin:round"
       id="path46"
       inkscape:connector-curvature="0" />
  </g>
  <g
     transform="translate(-1.3728813,0.68134218)"
     id="line2d_4"
     style="stroke-linecap:butt;stroke-linejoin:round">
    <path
       clip-path="url(#p25d9a79b3b)"
       d="m 28.7597,410.988 0.6797,-0.161 0.6796,-0.077 2.0391,-0.023 15.6326,0.366 23.1091,0.037 59.8122,-0.067 0.679,-0.245 0.68,-0.512 0.68,-0.835 0.679,-1.18 0.68,-1.522 1.359,-3.914 4.079,-13.261 0.679,-1.577 0.68,-1.236 0.68,-0.871 0.679,-0.498 0.68,-0.133 0.68,0.212 0.679,0.523 0.68,0.793 1.359,2.214 2.039,4.184 2.719,5.564 1.359,2.339 1.36,1.937 1.359,1.527 1.36,1.147 1.359,0.816 1.359,0.538 1.36,0.316 2.039,0.161 2.039,-0.092 3.398,-0.44 7.477,-1.088 4.757,-0.426 5.438,-0.248 8.156,-0.122 21.07,-0.016 0.68,0.065 0.679,0.246 0.68,0.513 0.68,0.835 0.679,1.181 0.68,1.522 1.359,3.916 4.079,13.264 0.679,1.577 0.68,1.237 0.68,0.871 0.679,0.498 0.68,0.133 0.68,-0.21 0.679,-0.523 0.68,-0.793 1.359,-2.213 2.039,-4.181 2.719,-5.562 1.359,-2.339 1.36,-1.935 1.359,-1.527 1.36,-1.146 1.359,-0.814 1.359,-0.538 1.36,-0.314 2.039,-0.16 2.039,0.094 3.398,0.442 7.477,1.094 4.757,0.431 5.438,0.252 8.156,0.128 21.75,0.033 67.968,-0.003 0,0"
       style="fill:none;stroke:#ffffff;stroke-width:2;stroke-linecap:square;stroke-linejoin:round"
       id="path62"
       inkscape:connector-curvature="0" />
  </g>
  <g
     id="matplotlib.axis_5"
     style="stroke-linecap:butt;stroke-linejoin:round"
     transform="translate(-1.3728813,-28.118658)" />
  <g
     id="matplotlib.axis_6"
     style="stroke-linecap:butt;stroke-linejoin:round"
     transform="translate(-1.3728813,-28.118658)" />
  <g
     id="patch_13"
     style="stroke-linecap:butt;stroke-linejoin:round"
     transform="translate(-1.3728813,-28.118658)">
    <path
       d="m 28.08,338.04 339.84,0"
       style="fill:none;stroke-linecap:butt;stroke-linejoin:round"
       id="path67"
       inkscape:connector-curvature="0" />
  </g>
  <g
     id="line2d_5"
     style="stroke-linecap:butt;stroke-linejoin:round"
     transform="translate(-1.3728813,-28.118658)">
    <path
       clip-path="url(#p1981e99193)"
       d="m 38.2752,619.92 6.7968,0 6.7968,0 6.7968,0 6.7968,0 6.7968,0 6.7968,0 6.7968,0 6.7968,0 6.7968,0 6.7966,0 6.797,0 6.797,0 6.797,0 6.796,0 6.797,0 6.797,-126.9 6.797,0 6.797,84.6 6.796,42.3 6.797,-84.6 6.797,84.6 6.797,0 6.797,0 6.796,0 6.797,0 6.797,0 6.797,0 6.797,0 6.796,0 6.797,0 6.797,0 6.797,0 6.797,0 6.796,0 6.797,0 6.797,0 6.797,0 6.797,0 6.796,0 6.797,0 6.797,0 6.797,0 6.797,0 6.796,0 6.797,0 6.797,0 6.797,0 6.797,0 6.796,0 6.797,0"
       style="fill:none;stroke:#ffffff;stroke-width:2;stroke-linecap:square;stroke-linejoin:round"
       id="path83"
       inkscape:connector-curvature="0" />
  </g>
  <g
     id="line2d_6"
     style="stroke-linecap:butt;stroke-linejoin:round"
     transform="translate(-1.3728813,-28.118658)">
    <path
       clip-path="url(#p1981e99193)"
       d="m 38.2752,619.92 6.7968,0 6.7968,0 6.7968,0 6.7968,0 6.7968,0 6.7968,0 6.7968,0 6.7968,0 6.7968,0 6.7966,0 6.797,0 6.797,0 6.797,0 6.796,0 6.797,0 6.797,0 6.797,0 6.797,0 6.796,0 6.797,0 6.797,0 6.797,0 6.797,0 6.796,0 6.797,0 6.797,0 6.797,0 6.797,0 6.796,-42.3 6.797,42.3 6.797,0 6.797,0 6.797,0 6.796,0 6.797,0 6.797,0 6.797,0 6.797,0 6.796,0 6.797,0 6.797,0 6.797,0 6.797,0 6.796,0 6.797,0 6.797,0 6.797,0 6.797,0 6.796,0 6.797,0"
       style="fill:none;stroke:#ffffff;stroke-width:2;stroke-linecap:butt;stroke-linejoin:round;stroke-dasharray:6, 6;stroke-dashoffset:0"
       id="path86"
       inkscape:connector-curvature="0" />
  </g>
  <g
     transform="translate(3.4271187,-61.718658)"
     id="line2d_7"
     style="stroke-linecap:butt;stroke-linejoin:round">
    <path
       clip-path="url(#p1981e99193)"
       d="m 265.968,611.46 84.62,0 0,0"
       style="fill:none;stroke:#ffffff;stroke-width:2;stroke-linecap:square;stroke-linejoin:round"
       id="path89"
       inkscape:connector-curvature="0" />
  </g>
  <g
     transform="translate(86.884746,-99.891539)"
     id="line2d_8"
     style="stroke-linecap:butt;stroke-linejoin:round">
    <path
       clip-path="url(#p1981e99193)"
       d="m 34.8768,619.92 0,-42.3"
       style="fill:none;stroke:#ffffff;stroke-width:2;stroke-linecap:square;stroke-linejoin:round"
       id="path92"
       inkscape:connector-curvature="0" />
  </g>
  <g
     id="matplotlib.axis_7"
     style="stroke-linecap:butt;stroke-linejoin:round"
     transform="translate(-1.3728813,-28.118658)" />
  <g
     id="matplotlib.axis_8"
     style="stroke-linecap:butt;stroke-linejoin:round"
     transform="translate(-1.3728813,-28.118658)" />
  <g
     id="patch_18"
     style="stroke-linecap:butt;stroke-linejoin:round"
     transform="translate(-1.3728813,-28.118658)">
    <path
       d="m 28.08,493.02 339.84,0"
       style="fill:none;stroke-linecap:butt;stroke-linejoin:round"
       id="path97"
       inkscape:connector-curvature="0" />
  </g>
  <text
     sodipodi:linespacing="125%"
     id="text3335"
     y="574.96851"
     x="272.28473"
     style="font-size:25.60000038px;font-style:normal;font-weight:normal;line-height:125%;letter-spacing:0px;word-spacing:0px;fill:#ffffff;fill-opacity:1;stroke:none;font-family:Sans"
     xml:space="preserve"><tspan
       y="574.96851"
       x="272.28473"
       id="tspan3337"
       sodipodi:role="line">0.25 s</tspan></text>
  <flowRoot
     transform="matrix(0.8,0,0,0.8,485.51526,-22.338997)"
     style="font-size:32px;font-style:normal;font-weight:normal;line-height:125%;letter-spacing:0px;word-spacing:0px;fill:#ffffff;fill-opacity:1;stroke:none;font-family:Sans"
     id="flowRoot3339"
     xml:space="preserve"><flowRegion
       id="flowRegion3341"><rect
         style="fill:#ffffff"
         y="628.0932"
         x="-564.59747"
         height="68.644066"
         width="197.3517"
         id="rect3343" /></flowRegion><flowPara
       id="flowPara3345">50 Hz</flowPara></flowRoot>  <defs
     id="defs108">
    <clipPath
       id="p39859b47b5">
      <rect
         height="126.9"
         width="339.84"
         x="28.08"
         y="183.06"
         id="rect111"
         style="stroke-linecap:butt;stroke-linejoin:round" />
    </clipPath>
    <clipPath
       id="p1981e99193">
      <rect
         height="126.9"
         width="339.84"
         x="28.08"
         y="493.01999"
         id="rect114"
         style="stroke-linecap:butt;stroke-linejoin:round" />
    </clipPath>
    <clipPath
       id="p4d2f4501d6">
      <rect
         height="126.9"
         width="339.84"
         x="28.08"
         y="28.08"
         id="rect117"
         style="stroke-linecap:butt;stroke-linejoin:round" />
    </clipPath>
    <clipPath
       id="p25d9a79b3b">
      <rect
         height="126.9"
         width="339.84"
         x="28.08"
         y="338.04001"
         id="rect120"
         style="stroke-linecap:butt;stroke-linejoin:round" />
    </clipPath>
  </defs>
  <text
     xml:space="preserve"
     style="font-size:25.60000038px;font-style:normal;font-weight:normal;line-height:125%;letter-spacing:0px;word-spacing:0px;fill:#ffffff;fill-opacity:1;stroke:none;font-family:Sans"
     x="280"
     y="402.40009"
     id="text3417"
     sodipodi:linespacing="125%"><tspan
       sodipodi:role="line"
       id="tspan3419"
       x="280"
       y="402.40009">bipolar</tspan></text>
  <text
     xml:space="preserve"
     style="font-size:25.60000038px;font-style:normal;font-weight:normal;line-height:125%;letter-spacing:0px;word-spacing:0px;fill:#ffffff;fill-opacity:1;stroke:none;font-family:Sans"
     x="280"
     y="310.40021"
     id="text3421"
     sodipodi:linespacing="125%"><tspan
       sodipodi:role="line"
       id="tspan3423"
       x="280"
       y="310.40021">H1</tspan></text>
  <text
     xml:space="preserve"
     style="font-size:25.60000038px;font-style:normal;font-weight:normal;line-height:125%;letter-spacing:0px;word-spacing:0px;fill:#ffffff;fill-opacity:1;stroke:none;font-family:Sans"
     x="280.06781"
     y="355.08154"
     id="text3425"
     sodipodi:linespacing="125%"><tspan
       sodipodi:role="line"
       id="tspan3427"
       x="280.06781"
       y="355.08154">H2</tspan></text>
  <text
     xml:space="preserve"
     style="font-size:25.60000038px;font-style:normal;font-weight:normal;line-height:125%;letter-spacing:0px;word-spacing:0px;fill:#ffffff;fill-opacity:1;stroke:none;font-family:Sans"
     x="284"
     y="192.80009"
     id="text3429"
     sodipodi:linespacing="125%"><tspan
       sodipodi:role="line"
       id="tspan3431"
       x="284"
       y="192.80009">cone</tspan></text>
  <path
     style="fill:none;stroke:#ffffff;stroke-width:2;stroke-linecap:butt;stroke-linejoin:miter;stroke-miterlimit:4;stroke-opacity:1;stroke-dasharray:none"
     d="m 25.398305,99.962708 102.601695,0 0,-72.762713 88,0 0,72.000001 152,0 0,0"
     id="path3435"
     inkscape:connector-curvature="0" />
  <text
     xml:space="preserve"
     style="font-size:25.60000038px;font-style:normal;font-weight:normal;line-height:125%;letter-spacing:0px;word-spacing:0px;fill:#ffffff;fill-opacity:1;stroke:none;font-family:Sans"
     x="282.39999"
     y="87.199982"
     id="text4205"
     sodipodi:linespacing="125%"><tspan
       sodipodi:role="line"
       id="tspan4207"
       x="282.39999"
       y="87.199982">input</tspan></text>
</svg>
