<?xml version="1.0" encoding="UTF-8" standalone="no"?>
<!-- Created with matplotlib (http://matplotlib.org/) -->

<svg
   xmlns:dc="http://purl.org/dc/elements/1.1/"
   xmlns:cc="http://creativecommons.org/ns#"
   xmlns:rdf="http://www.w3.org/1999/02/22-rdf-syntax-ns#"
   xmlns:svg="http://www.w3.org/2000/svg"
   xmlns="http://www.w3.org/2000/svg"
   xmlns:xlink="http://www.w3.org/1999/xlink"
   xmlns:sodipodi="http://sodipodi.sourceforge.net/DTD/sodipodi-0.dtd"
   xmlns:inkscape="http://www.inkscape.org/namespaces/inkscape"
   height="498.81354"
   version="1.1"
   viewBox="0 0 516.20337 399.05083"
   width="645.25421"
   id="svg2"
   inkscape:version="0.48.2 r9819"
   sodipodi:docname="time_const.svg"
   inkscape:export-filename="/Users/brianschmidt/Projects/wmmodels/results/fig/time_const.png"
   inkscape:export-xdpi="400"
   inkscape:export-ydpi="400">
  <metadata
     id="metadata321">
    <rdf:RDF>
      <cc:Work
         rdf:about="">
        <dc:format>image/svg+xml</dc:format>
        <dc:type
           rdf:resource="http://purl.org/dc/dcmitype/StillImage" />
        <dc:title></dc:title>
      </cc:Work>
    </rdf:RDF>
  </metadata>
  <sodipodi:namedview
     pagecolor="#ffffff"
     bordercolor="#666666"
     borderopacity="1"
     objecttolerance="10"
     gridtolerance="10"
     guidetolerance="10"
     inkscape:pageopacity="0"
     inkscape:pageshadow="2"
     inkscape:window-width="1263"
     inkscape:window-height="714"
     id="namedview319"
     showgrid="false"
     fit-margin-top="0"
     fit-margin-left="0"
     fit-margin-right="0"
     fit-margin-bottom="0"
     inkscape:zoom="0.87407407"
     inkscape:cx="355.42373"
     inkscape:cy="247.11864"
     inkscape:window-x="0"
     inkscape:window-y="0"
     inkscape:window-maximized="0"
     inkscape:current-layer="svg2" />
  <defs
     id="defs4"
     style="stroke-linecap:butt;stroke-linejoin:round">
    <style
       type="text/css"
       id="style6">
*{stroke-linecap:butt;stroke-linejoin:round;}
  </style>
  </defs>
  <rect
     style="fill:#000000;fill-opacity:1;stroke:none"
     id="rect3298"
     width="516.20337"
     height="399.05084"
     x="0"
     y="-3.5437129e-06" />
  <g
     id="figure_1"
     style="stroke-linecap:butt;stroke-linejoin:round"
     transform="translate(-3.6610168,-14.644071)">
    <g
       id="patch_1"
       style="stroke-linecap:butt;stroke-linejoin:round" />
    <g
       id="axes_1"
       style="stroke-linecap:butt;stroke-linejoin:round">
      <g
         id="patch_2"
         style="stroke-linecap:butt;stroke-linejoin:round">
        <path
           d="m 126.418,318.594 390.708,0 0,-277.9324 -390.708,0 z"
           id="path14"
           inkscape:connector-curvature="0"
           style="stroke-linecap:butt;stroke-linejoin:round" />
      </g>
      <g
         id="line2d_1"
         style="stroke-linecap:butt;stroke-linejoin:round">
        <path
           clip-path="url(#pd419f9189f)"
           d="m 127.07,318.594 165.399,0 1.303,-60.524 1.302,-47.417 1.302,-37.077 1.303,-28.99 1.302,-22.667 1.302,-17.724 1.303,-13.8575 1.302,-10.8355 1.302,-8.4719 1.303,-6.6242 1.302,-5.1796 1.303,-4.0495 1.302,-3.1664 1.302,-2.4759 1.303,-1.9355 1.302,-1.5133 1.302,-1.1834 1.303,-0.9253 1.953,-1.0233 1.954,-0.7076 1.953,-0.4892 2.605,-0.4258 3.256,-0.3077 5.209,-0.2268 9.117,-0.1109 30.605,-0.0208 86.607,0 0,0"
           style="fill:none;stroke:#bfbf00;stroke-width:2;stroke-linecap:square;stroke-linejoin:round"
           id="path17"
           inkscape:connector-curvature="0" />
      </g>
      <g
         id="line2d_2"
         style="stroke-linecap:butt;stroke-linejoin:round">
        <path
           clip-path="url(#pd419f9189f)"
           d="m 127.07,318.594 165.399,0 0.651,-56.551 0.652,-41.258 0.651,-33.569 0.651,-27.312 0.651,-22.222 0.651,-18.079 0.652,-14.71 0.651,-11.9688 0.651,-9.7382 0.651,-7.9235 0.651,-6.4472 0.651,-5.2455 0.652,-4.2682 0.651,-3.4727 0.651,-2.8258 0.651,-2.299 0.651,-1.8711 0.651,-1.5219 1.303,-2.2465 1.302,-1.4875 1.303,-0.9847 1.302,-0.6523 1.302,-0.432 1.954,-0.3902 2.605,-0.2562 4.558,-0.1529 11.721,-0.0453 127.631,-0.0014 0,0"
           style="fill:none;stroke:#0000ff;stroke-width:2;stroke-linecap:square;stroke-linejoin:round"
           id="path20"
           inkscape:connector-curvature="0" />
      </g>
      <g
         id="matplotlib.axis_1"
         style="stroke-linecap:butt;stroke-linejoin:round">
        <g
           id="xtick_1"
           style="stroke-linecap:butt;stroke-linejoin:round">
          <g
             id="line2d_3"
             style="stroke-linecap:butt;stroke-linejoin:round">
            <defs
               id="defs25">
              <path
                 d="M 0,0 0,16"
                 id="m0eac7e584c"
                 style="stroke:#ffffff;stroke-width:0.5;stroke-linecap:butt;stroke-linejoin:round"
                 inkscape:connector-curvature="0" />
            </defs>
            <g
               id="g28"
               style="stroke-linecap:butt;stroke-linejoin:round">
              <use
                 style="fill:#ffffff;stroke:#ffffff;stroke-width:0.5;stroke-linecap:butt;stroke-linejoin:round"
                 x="126.41843"
                 xlink:href="#m0eac7e584c"
                 y="328.59375"
                 id="use30"
                 width="576"
                 height="432" />
            </g>
          </g>
          <g
             id="text_1"
             style="stroke-linecap:butt;stroke-linejoin:round">
            <!-- 0 -->
            <defs
               id="defs33">
              <path
                 d="m 31.7812,66.4062 q -7.6093,0 -11.4531,-7.5 Q 16.5,51.4219 16.5,36.375 q 0,-14.9844 3.8281,-22.4844 3.8438,-7.49998 11.4531,-7.49998 7.6719,0 11.5,7.49998 3.8438,7.5 3.8438,22.4844 0,15.0469 -3.8438,22.5312 -3.8281,7.5 -11.5,7.5 m 0,7.8126 q 12.2657,0 18.7344,-9.7032 6.4688,-9.6875 6.4688,-28.1406 0,-18.4062 -6.4688,-28.10938 -6.4687,-9.6875 -18.7344,-9.6875 -12.25,0 -18.7187,9.6875 -6.46875,9.70318 -6.46875,28.10938 0,18.4531 6.46875,28.1406 6.4687,9.7032 18.7187,9.7032"
                 id="BitstreamVeraSans-Roman-30"
                 inkscape:connector-curvature="0"
                 style="stroke-linecap:butt;stroke-linejoin:round" />
            </defs>
            <g
               style="fill:#ffffff;stroke-linecap:butt;stroke-linejoin:round"
               transform="matrix(0.26,0,0,-0.26,119.86766,368.34969)"
               id="g36">
              <use
                 xlink:href="#BitstreamVeraSans-Roman-30"
                 id="use38"
                 style="stroke-linecap:butt;stroke-linejoin:round"
                 x="0"
                 y="0"
                 width="576"
                 height="432" />
            </g>
          </g>
        </g>
        <g
           id="xtick_2"
           style="stroke-linecap:butt;stroke-linejoin:round">
          <g
             id="line2d_4"
             style="stroke-linecap:butt;stroke-linejoin:round">
            <g
               id="g42"
               style="stroke-linecap:butt;stroke-linejoin:round">
              <use
                 style="fill:#ffffff;stroke:#ffffff;stroke-width:0.5;stroke-linecap:butt;stroke-linejoin:round"
                 x="191.53641"
                 xlink:href="#m0eac7e584c"
                 y="328.59375"
                 id="use44"
                 width="576"
                 height="432" />
            </g>
          </g>
          <g
             id="text_2"
             style="stroke-linecap:butt;stroke-linejoin:round">
            <!-- 200 -->
            <defs
               id="defs47">
              <path
                 d="m 19.1875,8.29688 34.4219,0 0,-8.29688 -46.28128,0 0,8.29688 Q 12.9375,14.1094 22.625,23.8906 q 9.7031,9.7969 12.1875,12.6406 4.7344,5.3126 6.6094,9 1.8906,3.6876 1.8906,7.25 0,5.8126 -4.0781,9.4688 -4.0782,3.6719 -10.625,3.6719 -4.6406,0 -9.7969,-1.6094 -5.1406,-1.6094 -11,-4.8906 l 0,9.9687 q 5.9531,2.3906 11.125,3.6094 5.1875,1.2188 9.4844,1.2188 11.3281,0 18.0625,-5.6719 6.7344,-5.6563 6.7344,-15.125 0,-4.5 -1.6876,-8.5313 Q 49.8594,40.875 45.4062,35.4062 44.1875,33.9844 37.6406,27.2188 31.1094,20.4531 19.1875,8.29688"
                 id="BitstreamVeraSans-Roman-32"
                 inkscape:connector-curvature="0"
                 style="stroke-linecap:butt;stroke-linejoin:round" />
            </defs>
            <g
               style="fill:#ffffff;stroke-linecap:butt;stroke-linejoin:round"
               transform="matrix(0.26,0,0,-0.26,168.53859,368.34969)"
               id="g50">
              <use
                 xlink:href="#BitstreamVeraSans-Roman-32"
                 id="use52"
                 style="stroke-linecap:butt;stroke-linejoin:round"
                 x="0"
                 y="0"
                 width="576"
                 height="432" />
              <use
                 x="63.623047"
                 xlink:href="#BitstreamVeraSans-Roman-30"
                 id="use54"
                 style="stroke-linecap:butt;stroke-linejoin:round"
                 y="0"
                 width="576"
                 height="432" />
              <use
                 x="127.24609"
                 xlink:href="#BitstreamVeraSans-Roman-30"
                 id="use56"
                 style="stroke-linecap:butt;stroke-linejoin:round"
                 y="0"
                 width="576"
                 height="432" />
            </g>
          </g>
        </g>
        <g
           id="xtick_3"
           style="stroke-linecap:butt;stroke-linejoin:round">
          <g
             id="line2d_5"
             style="stroke-linecap:butt;stroke-linejoin:round">
            <g
               id="g60"
               style="stroke-linecap:butt;stroke-linejoin:round">
              <use
                 style="fill:#ffffff;stroke:#ffffff;stroke-width:0.5;stroke-linecap:butt;stroke-linejoin:round"
                 x="256.65439"
                 xlink:href="#m0eac7e584c"
                 y="328.59375"
                 id="use62"
                 width="576"
                 height="432" />
            </g>
          </g>
          <g
             id="text_3"
             style="stroke-linecap:butt;stroke-linejoin:round">
            <!-- 400 -->
            <defs
               id="defs65">
              <path
                 d="m 37.7969,64.3125 -24.9063,-38.9219 24.9063,0 z m -2.5938,8.5937 12.4063,0 0,-47.5156 10.4062,0 0,-8.2031 -10.4062,0 0,-17.1875 -9.8125,0 0,17.1875 -32.90628,0 0,9.5156 z"
                 id="BitstreamVeraSans-Roman-34"
                 inkscape:connector-curvature="0"
                 style="stroke-linecap:butt;stroke-linejoin:round" />
            </defs>
            <g
               style="fill:#ffffff;stroke-linecap:butt;stroke-linejoin:round"
               transform="matrix(0.26,0,0,-0.26,233.33969,368.34969)"
               id="g68">
              <use
                 xlink:href="#BitstreamVeraSans-Roman-34"
                 id="use70"
                 style="stroke-linecap:butt;stroke-linejoin:round"
                 x="0"
                 y="0"
                 width="576"
                 height="432" />
              <use
                 x="63.623047"
                 xlink:href="#BitstreamVeraSans-Roman-30"
                 id="use72"
                 style="stroke-linecap:butt;stroke-linejoin:round"
                 y="0"
                 width="576"
                 height="432" />
              <use
                 x="127.24609"
                 xlink:href="#BitstreamVeraSans-Roman-30"
                 id="use74"
                 style="stroke-linecap:butt;stroke-linejoin:round"
                 y="0"
                 width="576"
                 height="432" />
            </g>
          </g>
        </g>
        <g
           id="xtick_4"
           style="stroke-linecap:butt;stroke-linejoin:round">
          <g
             id="line2d_6"
             style="stroke-linecap:butt;stroke-linejoin:round">
            <g
               id="g78"
               style="stroke-linecap:butt;stroke-linejoin:round">
              <use
                 style="fill:#ffffff;stroke:#ffffff;stroke-width:0.5;stroke-linecap:butt;stroke-linejoin:round"
                 x="321.77234"
                 xlink:href="#m0eac7e584c"
                 y="328.59375"
                 id="use80"
                 width="576"
                 height="432" />
            </g>
          </g>
          <g
             id="text_4"
             style="stroke-linecap:butt;stroke-linejoin:round">
            <!-- 600 -->
            <defs
               id="defs83">
              <path
                 d="m 33.0156,40.375 q -6.6406,0 -10.5312,-4.5469 -3.875,-4.5312 -3.875,-12.4375 0,-7.8594 3.875,-12.4375 3.8906,-4.56248 10.5312,-4.56248 6.6406,0 10.5156,4.56248 3.875,4.5781 3.875,12.4375 0,7.9063 -3.875,12.4375 -3.875,4.5469 -10.5156,4.5469 m 19.5782,30.9219 0,-8.9844 q -3.7188,1.75 -7.5,2.6719 -3.7813,0.9375 -7.5,0.9375 -9.7657,0 -14.9219,-6.5938 -5.1407,-6.5937 -5.875,-19.9219 2.875,4.25 7.2187,6.5157 4.3594,2.2656 9.5782,2.2656 10.9843,0 17.3593,-6.6719 6.375,-6.6562 6.375,-18.125 0,-11.2344 -6.6406,-18.03122 -6.6406,-6.78126 -17.6719,-6.78126 -12.6562,0 -19.3437,9.6875 -6.68752,9.70318 -6.68752,28.10938 0,17.2812 8.20312,27.5625 8.2031,10.2813 22.0156,10.2813 3.7188,0 7.5,-0.7344 3.7813,-0.7344 7.8907,-2.1875"
                 id="BitstreamVeraSans-Roman-36"
                 inkscape:connector-curvature="0"
                 style="stroke-linecap:butt;stroke-linejoin:round" />
            </defs>
            <g
               style="fill:#ffffff;stroke-linecap:butt;stroke-linejoin:round"
               transform="matrix(0.26,0,0,-0.26,298.72984,368.34969)"
               id="g86">
              <use
                 xlink:href="#BitstreamVeraSans-Roman-36"
                 id="use88"
                 style="stroke-linecap:butt;stroke-linejoin:round"
                 x="0"
                 y="0"
                 width="576"
                 height="432" />
              <use
                 x="63.623047"
                 xlink:href="#BitstreamVeraSans-Roman-30"
                 id="use90"
                 style="stroke-linecap:butt;stroke-linejoin:round"
                 y="0"
                 width="576"
                 height="432" />
              <use
                 x="127.24609"
                 xlink:href="#BitstreamVeraSans-Roman-30"
                 id="use92"
                 style="stroke-linecap:butt;stroke-linejoin:round"
                 y="0"
                 width="576"
                 height="432" />
            </g>
          </g>
        </g>
        <g
           id="xtick_5"
           style="stroke-linecap:butt;stroke-linejoin:round">
          <g
             id="line2d_7"
             style="stroke-linecap:butt;stroke-linejoin:round">
            <g
               id="g96"
               style="stroke-linecap:butt;stroke-linejoin:round">
              <use
                 style="fill:#ffffff;stroke:#ffffff;stroke-width:0.5;stroke-linecap:butt;stroke-linejoin:round"
                 x="386.89032"
                 xlink:href="#m0eac7e584c"
                 y="328.59375"
                 id="use98"
                 width="576"
                 height="432" />
            </g>
          </g>
          <g
             id="text_5"
             style="stroke-linecap:butt;stroke-linejoin:round">
            <!-- 800 -->
            <defs
               id="defs101">
              <path
                 d="m 31.7812,34.625 q -7.0312,0 -11.0624,-3.7656 -4.0157,-3.7656 -4.0157,-10.3438 0,-6.5937 4.0157,-10.3594 4.0312,-3.76558 11.0624,-3.76558 7.0313,0 11.0782,3.78128 4.0625,3.7969 4.0625,10.3437 0,6.5782 -4.0313,10.3438 -4.0156,3.7656 -11.1094,3.7656 m -9.8593,4.1875 Q 15.5781,40.375 12.0312,44.7188 8.5,49.0781 8.5,55.3281 q 0,8.7344 6.2188,13.8125 6.2343,5.0782 17.0624,5.0782 10.8907,0 17.0938,-5.0782 6.2031,-5.0781 6.2031,-13.8125 0,-6.25 -3.5469,-10.6093 Q 48,40.375 41.7031,38.8125 q 7.125,-1.6563 11.0938,-6.5 3.9843,-4.8281 3.9843,-11.7969 0,-10.60935 -6.4687,-16.28122 -6.4687,-5.65626 -18.5313,-5.65626 -12.0468,0 -18.5312,5.65626 -6.46875,5.67187 -6.46875,16.28122 0,6.9688 3.99995,11.7969 4.0157,4.8437 11.1407,6.5 m -3.6094,15.5781 q 0,-5.6562 3.5313,-8.8281 3.5468,-3.1719 9.9374,-3.1719 6.3594,0 9.9376,3.1719 3.5937,3.1719 3.5937,8.8281 0,5.6719 -3.5937,8.8438 -3.5782,3.1718 -9.9376,3.1718 -6.3906,0 -9.9374,-3.1718 -3.5313,-3.1719 -3.5313,-8.8438"
                 id="BitstreamVeraSans-Roman-38"
                 inkscape:connector-curvature="0"
                 style="stroke-linecap:butt;stroke-linejoin:round" />
            </defs>
            <g
               style="fill:#ffffff;stroke-linecap:butt;stroke-linejoin:round"
               transform="matrix(0.26,0,0,-0.26,363.82141,368.34969)"
               id="g104">
              <use
                 xlink:href="#BitstreamVeraSans-Roman-38"
                 id="use106"
                 style="stroke-linecap:butt;stroke-linejoin:round"
                 x="0"
                 y="0"
                 width="576"
                 height="432" />
              <use
                 x="63.623047"
                 xlink:href="#BitstreamVeraSans-Roman-30"
                 id="use108"
                 style="stroke-linecap:butt;stroke-linejoin:round"
                 y="0"
                 width="576"
                 height="432" />
              <use
                 x="127.24609"
                 xlink:href="#BitstreamVeraSans-Roman-30"
                 id="use110"
                 style="stroke-linecap:butt;stroke-linejoin:round"
                 y="0"
                 width="576"
                 height="432" />
            </g>
          </g>
        </g>
        <g
           id="xtick_6"
           style="stroke-linecap:butt;stroke-linejoin:round">
          <g
             id="line2d_8"
             style="stroke-linecap:butt;stroke-linejoin:round">
            <g
               id="g114"
               style="stroke-linecap:butt;stroke-linejoin:round">
              <use
                 style="fill:#ffffff;stroke:#ffffff;stroke-width:0.5;stroke-linecap:butt;stroke-linejoin:round"
                 x="452.00827"
                 xlink:href="#m0eac7e584c"
                 y="328.59375"
                 id="use116"
                 width="576"
                 height="432" />
            </g>
          </g>
          <g
             id="text_6"
             style="stroke-linecap:butt;stroke-linejoin:round">
            <!-- 1000 -->
            <defs
               id="defs119">
              <path
                 d="m 12.4062,8.29688 16.1094,0 0,55.62502 -17.5312,-3.5157 0,8.9844 17.4375,3.5156 9.8593,0 0,-64.60932 16.1094,0 0,-8.29688 -41.9844,0 z"
                 id="BitstreamVeraSans-Roman-31"
                 inkscape:connector-curvature="0"
                 style="stroke-linecap:butt;stroke-linejoin:round" />
            </defs>
            <g
               style="fill:#ffffff;stroke-linecap:butt;stroke-linejoin:round"
               transform="matrix(0.26,0,0,-0.26,421.21453,368.34969)"
               id="g122">
              <use
                 xlink:href="#BitstreamVeraSans-Roman-31"
                 id="use124"
                 style="stroke-linecap:butt;stroke-linejoin:round"
                 x="0"
                 y="0"
                 width="576"
                 height="432" />
              <use
                 x="63.623047"
                 xlink:href="#BitstreamVeraSans-Roman-30"
                 id="use126"
                 style="stroke-linecap:butt;stroke-linejoin:round"
                 y="0"
                 width="576"
                 height="432" />
              <use
                 x="127.24609"
                 xlink:href="#BitstreamVeraSans-Roman-30"
                 id="use128"
                 style="stroke-linecap:butt;stroke-linejoin:round"
                 y="0"
                 width="576"
                 height="432" />
              <use
                 x="190.86914"
                 xlink:href="#BitstreamVeraSans-Roman-30"
                 id="use130"
                 style="stroke-linecap:butt;stroke-linejoin:round"
                 y="0"
                 width="576"
                 height="432" />
            </g>
          </g>
        </g>
        <g
           id="text_8"
           style="stroke-linecap:butt;stroke-linejoin:round">
          <!-- time (ms) -->
          <defs
             id="defs150">
            <path
               id="BitstreamVeraSans-Roman-20"
               d=""
               inkscape:connector-curvature="0"
               style="stroke-linecap:butt;stroke-linejoin:round" />
            <path
               d="m 8.01562,75.875 7.81248,0 Q 23.1406,64.3594 26.7812,53.3125 30.4219,42.2812 30.4219,31.3906 30.4219,20.4531 26.7812,9.375 23.1406,-1.70312 15.8281,-13.1875 l -7.81248,0 Q 14.5,-2 17.7031,9.0625 q 3.2031,11.0625 3.2031,22.3281 0,11.2813 -3.2031,22.2656 -3.2031,11 -9.68748,22.2188"
               id="BitstreamVeraSans-Roman-29"
               inkscape:connector-curvature="0"
               style="stroke-linecap:butt;stroke-linejoin:round" />
            <path
               d="M 52,44.1875 Q 55.375,50.25 60.0625,53.125 64.75,56 71.0938,56 q 8.5468,0 13.1874,-5.9844 4.6407,-5.9687 4.6407,-17 l 0,-33.0156 -9.0313,0 0,32.7188 q 0,7.8593 -2.7968,11.6562 -2.7813,3.8125 -8.4844,3.8125 -6.9844,0 -11.0469,-4.6406 -4.0469,-4.625 -4.0469,-12.6407 l 0,-30.9062 -9.0312,0 0,32.7188 q 0,7.9062 -2.7813,11.6874 -2.7812,3.7813 -8.5937,3.7813 -6.8906,0 -10.9532,-4.6563 -4.0468,-4.6562 -4.0468,-12.625 l 0,-30.9062 -9.03128,0 0,54.6875 9.03128,0 0,-8.5 q 3.0781,5.0313 7.375,7.4219 Q 29.7812,56 35.6875,56 41.6562,56 45.8281,52.9688 50,49.9531 52,44.1875"
               id="BitstreamVeraSans-Roman-6d"
               inkscape:connector-curvature="0"
               style="stroke-linecap:butt;stroke-linejoin:round" />
            <path
               d="m 9.42188,54.6875 8.98432,0 0,-54.6875 -8.98432,0 z m 0,21.2969 8.98432,0 0,-11.3906 -8.98432,0 z"
               id="BitstreamVeraSans-Roman-69"
               inkscape:connector-curvature="0"
               style="stroke-linecap:butt;stroke-linejoin:round" />
            <path
               d="M 31,75.875 Q 24.4688,64.6562 21.2812,53.6562 18.1094,42.6719 18.1094,31.3906 18.1094,20.125 21.3125,9.0625 24.5156,-2 31,-13.1875 l -7.8125,0 Q 15.875,-1.70312 12.2344,9.375 8.59375,20.4531 8.59375,31.3906 q 0,10.8906 3.60935,21.9219 3.625,11.0469 10.9844,22.5625 z"
               id="BitstreamVeraSans-Roman-28"
               inkscape:connector-curvature="0"
               style="stroke-linecap:butt;stroke-linejoin:round" />
            <path
               d="m 56.2031,29.5938 0,-4.3907 -41.3125,0 q 0.5938,-9.2812 5.5938,-14.1406 5,-4.85938 13.9375,-4.85938 5.1719,0 10.0312,1.26563 4.8594,1.26563 9.6563,3.81245 l 0,-8.49995 q -4.8438,-2.046875 -9.9219,-3.125 -5.0781,-1.07813 -10.2969,-1.07813 -13.0937,0 -20.7344,7.60938 -7.64058,7.625 -7.64058,20.625 0,13.4219 7.24998,21.2969 Q 20.0156,56 32.3281,56 q 11.0313,0 17.4531,-7.1094 6.4219,-7.0937 6.4219,-19.2968 m -8.9843,2.6406 q -0.0938,7.3594 -4.125,11.75 -4.0313,4.4062 -10.6719,4.4062 -7.5157,0 -12.0313,-4.25 -4.5156,-4.25 -5.2031,-11.9687 z"
               id="BitstreamVeraSans-Roman-65"
               inkscape:connector-curvature="0"
               style="stroke-linecap:butt;stroke-linejoin:round" />
            <path
               d="m 18.3125,70.2188 0,-15.5313 18.5,0 0,-6.9844 -18.5,0 0,-29.6875 q 0,-6.6875 1.8281,-8.59372 1.8282,-1.90626 7.4532,-1.90626 l 9.2187,0 0,-7.51562 -9.2187,0 Q 17.1875,0 13.2344,3.875 9.28125,7.76562 9.28125,18.0156 l 0,29.6875 -6.59375,0 0,6.9844 6.59375,0 0,15.5313 z"
               id="BitstreamVeraSans-Roman-74"
               inkscape:connector-curvature="0"
               style="stroke-linecap:butt;stroke-linejoin:round" />
            <path
               d="m 44.2812,53.0781 0,-8.5 q -3.7968,1.9531 -7.9062,2.9219 -4.0938,0.9844 -8.5,0.9844 -6.6875,0 -10.0312,-2.0469 Q 14.5,44.3906 14.5,40.2812 q 0,-3.125 2.3906,-4.9062 2.3906,-1.7812 9.625,-3.3906 l 3.0782,-0.6875 q 9.5624,-2.0469 13.5937,-5.7813 4.0313,-3.7344 4.0313,-10.4218 0,-7.62505 -6.0313,-12.07818 -6.0313,-4.4375 -16.5781,-4.4375 -4.3906,0 -9.1563,0.85938 Q 10.6875,0.296875 5.42188,2 l 0,9.2812 q 4.98432,-2.5937 9.81252,-3.89058 4.8281,-1.28124 9.5781,-1.28124 6.3437,0 9.75,2.17187 3.4219,2.17185 3.4219,6.12495 0,3.6563 -2.4688,5.6094 -2.4531,1.9532 -10.8125,3.7656 l -3.125,0.7344 q -8.3437,1.75 -12.06248,5.3906 -3.70312,3.6407 -3.70312,9.9844 0,7.7188 5.4687,11.9063 Q 16.75,56 26.8125,56 q 4.9687,0 9.3594,-0.7344 4.4062,-0.7187 8.1093,-2.1875"
               id="BitstreamVeraSans-Roman-73"
               inkscape:connector-curvature="0"
               style="stroke-linecap:butt;stroke-linejoin:round" />
          </defs>
          <g
             style="fill:#ffffff;stroke-linecap:butt;stroke-linejoin:round"
             transform="matrix(0.26,0,0,-0.26,259.80906,398.51281)"
             id="g160">
            <use
               xlink:href="#BitstreamVeraSans-Roman-74"
               id="use162"
               style="stroke-linecap:butt;stroke-linejoin:round"
               x="0"
               y="0"
               width="576"
               height="432" />
            <use
               x="39.208984"
               xlink:href="#BitstreamVeraSans-Roman-69"
               id="use164"
               style="stroke-linecap:butt;stroke-linejoin:round"
               y="0"
               width="576"
               height="432" />
            <use
               x="66.992188"
               xlink:href="#BitstreamVeraSans-Roman-6d"
               id="use166"
               style="stroke-linecap:butt;stroke-linejoin:round"
               y="0"
               width="576"
               height="432" />
            <use
               x="164.4043"
               xlink:href="#BitstreamVeraSans-Roman-65"
               id="use168"
               style="stroke-linecap:butt;stroke-linejoin:round"
               y="0"
               width="576"
               height="432" />
            <use
               x="225.92773"
               xlink:href="#BitstreamVeraSans-Roman-20"
               id="use170"
               style="stroke-linecap:butt;stroke-linejoin:round"
               y="0"
               width="576"
               height="432" />
            <use
               x="257.71484"
               xlink:href="#BitstreamVeraSans-Roman-28"
               id="use172"
               style="stroke-linecap:butt;stroke-linejoin:round"
               y="0"
               width="576"
               height="432" />
            <use
               x="296.72852"
               xlink:href="#BitstreamVeraSans-Roman-6d"
               id="use174"
               style="stroke-linecap:butt;stroke-linejoin:round"
               y="0"
               width="576"
               height="432" />
            <use
               x="394.14062"
               xlink:href="#BitstreamVeraSans-Roman-73"
               id="use176"
               style="stroke-linecap:butt;stroke-linejoin:round"
               y="0"
               width="576"
               height="432" />
            <use
               x="446.24023"
               xlink:href="#BitstreamVeraSans-Roman-29"
               id="use178"
               style="stroke-linecap:butt;stroke-linejoin:round"
               y="0"
               width="576"
               height="432" />
          </g>
        </g>
      </g>
      <g
         id="matplotlib.axis_2"
         style="stroke-linecap:butt;stroke-linejoin:round">
        <g
           id="ytick_1"
           style="stroke-linecap:butt;stroke-linejoin:round">
          <g
             id="line2d_10"
             style="stroke-linecap:butt;stroke-linejoin:round">
            <defs
               id="defs183">
              <path
                 d="M 0,0 -16,0"
                 id="m8ecbcc2e8c"
                 style="stroke:#ffffff;stroke-width:0.5;stroke-linecap:butt;stroke-linejoin:round"
                 inkscape:connector-curvature="0" />
            </defs>
            <g
               id="g186"
               style="stroke-linecap:butt;stroke-linejoin:round">
              <use
                 style="fill:#ffffff;stroke:#ffffff;stroke-width:0.5;stroke-linecap:butt;stroke-linejoin:round"
                 x="116.41843"
                 xlink:href="#m8ecbcc2e8c"
                 y="318.59375"
                 id="use188"
                 width="576"
                 height="432" />
            </g>
          </g>
          <g
             id="text_9"
             style="stroke-linecap:butt;stroke-linejoin:round">
            <!-- 0.0 -->
            <defs
               id="defs191">
              <path
                 d="M 10.6875,12.4062 21,12.4062 21,0 10.6875,0 z"
                 id="BitstreamVeraSans-Roman-2e"
                 inkscape:connector-curvature="0"
                 style="stroke-linecap:butt;stroke-linejoin:round" />
            </defs>
            <g
               style="fill:#ffffff;stroke-linecap:butt;stroke-linejoin:round"
               transform="matrix(0.26,0,0,-0.26,58.51125,325.76812)"
               id="g194">
              <use
                 xlink:href="#BitstreamVeraSans-Roman-30"
                 id="use196"
                 style="stroke-linecap:butt;stroke-linejoin:round"
                 x="0"
                 y="0"
                 width="576"
                 height="432" />
              <use
                 x="63.623047"
                 xlink:href="#BitstreamVeraSans-Roman-2e"
                 id="use198"
                 style="stroke-linecap:butt;stroke-linejoin:round"
                 y="0"
                 width="576"
                 height="432" />
              <use
                 x="95.410156"
                 xlink:href="#BitstreamVeraSans-Roman-30"
                 id="use200"
                 style="stroke-linecap:butt;stroke-linejoin:round"
                 y="0"
                 width="576"
                 height="432" />
            </g>
          </g>
        </g>
        <g
           id="ytick_2"
           style="stroke-linecap:butt;stroke-linejoin:round">
          <g
             id="line2d_11"
             style="stroke-linecap:butt;stroke-linejoin:round">
            <g
               id="g204"
               style="stroke-linecap:butt;stroke-linejoin:round">
              <use
                 style="fill:#ffffff;stroke:#ffffff;stroke-width:0.5;stroke-linecap:butt;stroke-linejoin:round"
                 x="116.41843"
                 xlink:href="#m8ecbcc2e8c"
                 y="263.00732"
                 id="use206"
                 width="576"
                 height="432" />
            </g>
          </g>
          <g
             id="text_10"
             style="stroke-linecap:butt;stroke-linejoin:round">
            <!-- 0.2 -->
            <g
               style="fill:#ffffff;stroke-linecap:butt;stroke-linejoin:round"
               transform="matrix(0.26,0,0,-0.26,59.38875,270.18169)"
               id="g209">
              <use
                 xlink:href="#BitstreamVeraSans-Roman-30"
                 id="use211"
                 style="stroke-linecap:butt;stroke-linejoin:round"
                 x="0"
                 y="0"
                 width="576"
                 height="432" />
              <use
                 x="63.623047"
                 xlink:href="#BitstreamVeraSans-Roman-2e"
                 id="use213"
                 style="stroke-linecap:butt;stroke-linejoin:round"
                 y="0"
                 width="576"
                 height="432" />
              <use
                 x="95.410156"
                 xlink:href="#BitstreamVeraSans-Roman-32"
                 id="use215"
                 style="stroke-linecap:butt;stroke-linejoin:round"
                 y="0"
                 width="576"
                 height="432" />
            </g>
          </g>
        </g>
        <g
           id="ytick_3"
           style="stroke-linecap:butt;stroke-linejoin:round">
          <g
             id="line2d_12"
             style="stroke-linecap:butt;stroke-linejoin:round">
            <g
               id="g219"
               style="stroke-linecap:butt;stroke-linejoin:round">
              <use
                 style="fill:#ffffff;stroke:#ffffff;stroke-width:0.5;stroke-linecap:butt;stroke-linejoin:round"
                 x="116.41843"
                 xlink:href="#m8ecbcc2e8c"
                 y="207.42087"
                 id="use221"
                 width="576"
                 height="432" />
            </g>
          </g>
          <g
             id="text_11"
             style="stroke-linecap:butt;stroke-linejoin:round">
            <!-- 0.4 -->
            <g
               style="fill:#ffffff;stroke-linecap:butt;stroke-linejoin:round"
               transform="matrix(0.26,0,0,-0.26,58.243125,214.59525)"
               id="g224">
              <use
                 xlink:href="#BitstreamVeraSans-Roman-30"
                 id="use226"
                 style="stroke-linecap:butt;stroke-linejoin:round"
                 x="0"
                 y="0"
                 width="576"
                 height="432" />
              <use
                 x="63.623047"
                 xlink:href="#BitstreamVeraSans-Roman-2e"
                 id="use228"
                 style="stroke-linecap:butt;stroke-linejoin:round"
                 y="0"
                 width="576"
                 height="432" />
              <use
                 x="95.410156"
                 xlink:href="#BitstreamVeraSans-Roman-34"
                 id="use230"
                 style="stroke-linecap:butt;stroke-linejoin:round"
                 y="0"
                 width="576"
                 height="432" />
            </g>
          </g>
        </g>
        <g
           id="ytick_4"
           style="stroke-linecap:butt;stroke-linejoin:round">
          <g
             id="line2d_13"
             style="stroke-linecap:butt;stroke-linejoin:round">
            <g
               id="g234"
               style="stroke-linecap:butt;stroke-linejoin:round">
              <use
                 style="fill:#ffffff;stroke:#ffffff;stroke-width:0.5;stroke-linecap:butt;stroke-linejoin:round"
                 x="116.41843"
                 xlink:href="#m8ecbcc2e8c"
                 y="151.83444"
                 id="use236"
                 width="576"
                 height="432" />
            </g>
          </g>
          <g
             id="text_12"
             style="stroke-linecap:butt;stroke-linejoin:round">
            <!-- 0.6 -->
            <g
               style="fill:#ffffff;stroke-linecap:butt;stroke-linejoin:round"
               transform="matrix(0.26,0,0,-0.26,58.421875,159.00881)"
               id="g239">
              <use
                 xlink:href="#BitstreamVeraSans-Roman-30"
                 id="use241"
                 style="stroke-linecap:butt;stroke-linejoin:round"
                 x="0"
                 y="0"
                 width="576"
                 height="432" />
              <use
                 x="63.623047"
                 xlink:href="#BitstreamVeraSans-Roman-2e"
                 id="use243"
                 style="stroke-linecap:butt;stroke-linejoin:round"
                 y="0"
                 width="576"
                 height="432" />
              <use
                 x="95.410156"
                 xlink:href="#BitstreamVeraSans-Roman-36"
                 id="use245"
                 style="stroke-linecap:butt;stroke-linejoin:round"
                 y="0"
                 width="576"
                 height="432" />
            </g>
          </g>
        </g>
        <g
           id="ytick_5"
           style="stroke-linecap:butt;stroke-linejoin:round">
          <g
             id="line2d_14"
             style="stroke-linecap:butt;stroke-linejoin:round">
            <g
               id="g249"
               style="stroke-linecap:butt;stroke-linejoin:round">
              <use
                 style="fill:#ffffff;stroke:#ffffff;stroke-width:0.5;stroke-linecap:butt;stroke-linejoin:round"
                 x="116.41843"
                 xlink:href="#m8ecbcc2e8c"
                 y="96.248001"
                 id="use251"
                 width="576"
                 height="432" />
            </g>
          </g>
          <g
             id="text_13"
             style="stroke-linecap:butt;stroke-linejoin:round">
            <!-- 0.8 -->
            <g
               style="fill:#ffffff;stroke-linecap:butt;stroke-linejoin:round"
               transform="matrix(0.26,0,0,-0.26,58.564062,103.42238)"
               id="g254">
              <use
                 xlink:href="#BitstreamVeraSans-Roman-30"
                 id="use256"
                 style="stroke-linecap:butt;stroke-linejoin:round"
                 x="0"
                 y="0"
                 width="576"
                 height="432" />
              <use
                 x="63.623047"
                 xlink:href="#BitstreamVeraSans-Roman-2e"
                 id="use258"
                 style="stroke-linecap:butt;stroke-linejoin:round"
                 y="0"
                 width="576"
                 height="432" />
              <use
                 x="95.410156"
                 xlink:href="#BitstreamVeraSans-Roman-38"
                 id="use260"
                 style="stroke-linecap:butt;stroke-linejoin:round"
                 y="0"
                 width="576"
                 height="432" />
            </g>
          </g>
        </g>
        <g
           id="ytick_6"
           style="stroke-linecap:butt;stroke-linejoin:round">
          <g
             id="line2d_15"
             style="stroke-linecap:butt;stroke-linejoin:round">
            <g
               id="g264"
               style="stroke-linecap:butt;stroke-linejoin:round">
              <use
                 style="fill:#ffffff;stroke:#ffffff;stroke-width:0.5;stroke-linecap:butt;stroke-linejoin:round"
                 x="116.41843"
                 xlink:href="#m8ecbcc2e8c"
                 y="40.661564"
                 id="use266"
                 width="576"
                 height="432" />
            </g>
          </g>
          <g
             id="text_14"
             style="stroke-linecap:butt;stroke-linejoin:round">
            <!-- 1.0 -->
            <g
               style="fill:#ffffff;stroke-linecap:butt;stroke-linejoin:round"
               transform="matrix(0.26,0,0,-0.26,59.652813,47.835937)"
               id="g269">
              <use
                 xlink:href="#BitstreamVeraSans-Roman-31"
                 id="use271"
                 style="stroke-linecap:butt;stroke-linejoin:round"
                 x="0"
                 y="0"
                 width="576"
                 height="432" />
              <use
                 x="63.623047"
                 xlink:href="#BitstreamVeraSans-Roman-2e"
                 id="use273"
                 style="stroke-linecap:butt;stroke-linejoin:round"
                 y="0"
                 width="576"
                 height="432" />
              <use
                 x="95.410156"
                 xlink:href="#BitstreamVeraSans-Roman-30"
                 id="use275"
                 style="stroke-linecap:butt;stroke-linejoin:round"
                 y="0"
                 width="576"
                 height="432" />
            </g>
          </g>
        </g>
        <g
           id="text_15"
           style="stroke-linecap:butt;stroke-linejoin:round">
          <!-- response -->
          <defs
             id="defs278">
            <path
               d="m 54.8906,33.0156 0,-33.0156 -8.9844,0 0,32.7188 q 0,7.7656 -3.0312,11.6093 -3.0312,3.8594 -9.0781,3.8594 -7.2813,0 -11.4844,-4.6406 -4.2031,-4.625 -4.2031,-12.6407 l 0,-30.9062 -9.03128,0 0,54.6875 9.03128,0 0,-8.5 q 3.2344,4.9375 7.5937,7.375 Q 30.0781,56 35.7969,56 q 9.4219,0 14.25,-5.8281 4.8437,-5.8281 4.8437,-17.1563"
               id="BitstreamVeraSans-Roman-6e"
               inkscape:connector-curvature="0"
               style="stroke-linecap:butt;stroke-linejoin:round" />
            <path
               d="m 30.6094,48.3906 q -7.2188,0 -11.4219,-5.6406 -4.2031,-5.6406 -4.2031,-15.4531 0,-9.8125 4.1718,-15.4531 4.1876,-5.64068 11.4532,-5.64068 7.1875,0 11.375,5.65628 4.2031,5.6718 4.2031,15.4375 0,9.7187 -4.2031,15.4062 -4.1875,5.6875 -11.375,5.6875 m 0,7.6094 q 11.7187,0 18.4062,-7.625 6.7032,-7.6094 6.7032,-21.0781 0,-13.4219 -6.7032,-21.07815 -6.6875,-7.64063 -18.4062,-7.64063 -11.7656,0 -18.4375,7.64063 -6.65628,7.65625 -6.65628,21.07815 0,13.4687 6.65628,21.0781 Q 18.8438,56 30.6094,56"
               id="BitstreamVeraSans-Roman-6f"
               inkscape:connector-curvature="0"
               style="stroke-linecap:butt;stroke-linejoin:round" />
            <path
               d="m 41.1094,46.2969 q -1.5156,0.875 -3.2969,1.2812 Q 36.0312,48 33.8906,48 26.2656,48 22.1875,43.0469 18.1094,38.0938 18.1094,28.8125 l 0,-28.8125 -9.03128,0 0,54.6875 9.03128,0 0,-8.5 q 2.8437,4.9844 7.375,7.3906 Q 30.0312,56 36.5312,56 q 0.9219,0 2.0469,-0.125 1.125,-0.1094 2.4844,-0.3594 z"
               id="BitstreamVeraSans-Roman-72"
               inkscape:connector-curvature="0"
               style="stroke-linecap:butt;stroke-linejoin:round" />
            <path
               d="m 18.1094,8.20312 0,-29.00002 -9.03128,0 0,75.4844 9.03128,0 0,-8.2969 q 2.8437,4.875 7.1562,7.2344 Q 29.5938,56 35.5938,56 q 9.9687,0 16.1874,-7.9062 6.2344,-7.9063 6.2344,-20.7969 0,-12.8907 -6.2344,-20.81252 -6.2187,-7.90626 -16.1874,-7.90626 -6,0 -10.3282,2.375005 Q 20.9531,3.32812 18.1094,8.20312 M 48.6875,27.2969 q 0,9.9062 -4.0781,15.5469 -4.0782,5.6406 -11.2032,5.6406 -7.1406,0 -11.2187,-5.6406 -4.0781,-5.6407 -4.0781,-15.5469 0,-9.9063 4.0781,-15.5469 4.0781,-5.64062 11.2187,-5.64062 7.125,0 11.2032,5.64062 4.0781,5.6406 4.0781,15.5469"
               id="BitstreamVeraSans-Roman-70"
               inkscape:connector-curvature="0"
               style="stroke-linecap:butt;stroke-linejoin:round" />
          </defs>
          <g
             style="fill:#ffffff;stroke-linecap:butt;stroke-linejoin:round"
             transform="matrix(0,-0.26,-0.26,0,47.835937,236.79516)"
             id="g284">
            <use
               xlink:href="#BitstreamVeraSans-Roman-72"
               id="use286"
               style="stroke-linecap:butt;stroke-linejoin:round"
               x="0"
               y="0"
               width="576"
               height="432" />
            <use
               x="38.863281"
               xlink:href="#BitstreamVeraSans-Roman-65"
               id="use288"
               style="stroke-linecap:butt;stroke-linejoin:round"
               y="0"
               width="576"
               height="432" />
            <use
               x="100.38672"
               xlink:href="#BitstreamVeraSans-Roman-73"
               id="use290"
               style="stroke-linecap:butt;stroke-linejoin:round"
               y="0"
               width="576"
               height="432" />
            <use
               x="152.48633"
               xlink:href="#BitstreamVeraSans-Roman-70"
               id="use292"
               style="stroke-linecap:butt;stroke-linejoin:round"
               y="0"
               width="576"
               height="432" />
            <use
               x="215.96289"
               xlink:href="#BitstreamVeraSans-Roman-6f"
               id="use294"
               style="stroke-linecap:butt;stroke-linejoin:round"
               y="0"
               width="576"
               height="432" />
            <use
               x="277.14453"
               xlink:href="#BitstreamVeraSans-Roman-6e"
               id="use296"
               style="stroke-linecap:butt;stroke-linejoin:round"
               y="0"
               width="576"
               height="432" />
            <use
               x="340.52344"
               xlink:href="#BitstreamVeraSans-Roman-73"
               id="use298"
               style="stroke-linecap:butt;stroke-linejoin:round"
               y="0"
               width="576"
               height="432" />
            <use
               x="392.62305"
               xlink:href="#BitstreamVeraSans-Roman-65"
               id="use300"
               style="stroke-linecap:butt;stroke-linejoin:round"
               y="0"
               width="576"
               height="432" />
          </g>
        </g>
      </g>
      <g
         id="patch_3"
         style="stroke-linecap:butt;stroke-linejoin:round">
        <path
           d="m 126.418,40.6616 390.708,0"
           style="fill:none;stroke-linecap:butt;stroke-linejoin:round"
           id="path303"
           inkscape:connector-curvature="0" />
      </g>
      <g
         id="patch_4"
         style="stroke-linecap:butt;stroke-linejoin:round">
        <path
           d="m 517.126,318.594 0,-277.9324"
           style="fill:none;stroke-linecap:butt;stroke-linejoin:round"
           id="path306"
           inkscape:connector-curvature="0" />
      </g>
      <g
         id="patch_5"
         style="stroke-linecap:butt;stroke-linejoin:round"
         transform="matrix(0.83183467,0,0,1,21.259124,0)">
        <path
           d="m 126.418,328.594 390.708,0"
           style="fill:none;stroke:#ffffff;stroke-linecap:butt;stroke-linejoin:round"
           id="path309"
           inkscape:connector-curvature="0" />
      </g>
      <g
         id="patch_6"
         style="stroke-linecap:butt;stroke-linejoin:round">
        <path
           d="m 116.418,318.594 0,-277.9324"
           style="fill:none;stroke:#ffffff;stroke-linecap:butt;stroke-linejoin:round"
           id="path312"
           inkscape:connector-curvature="0" />
      </g>
    </g>
  </g>
  <defs
     id="defs314">
    <clipPath
       id="pd419f9189f">
      <rect
         height="277.93219"
         width="390.70782"
         x="126.41843"
         y="40.661564"
         id="rect317"
         style="stroke-linecap:butt;stroke-linejoin:round" />
    </clipPath>
  </defs>
</svg>
